<?xml version="1.0" encoding="UTF-8" standalone="no"?>
<!DOCTYPE svg PUBLIC "-//W3C//DTD SVG 1.1//EN"
 "http://www.w3.org/Graphics/SVG/1.1/DTD/svg11.dtd">
<!-- Generated by graphviz version 14.1.5 (20260411.2331)
 -->
<!-- Title: G Pages: 1 -->
<svg width="700pt" height="406pt"
 viewBox="0.00 0.00 700.00 406.00" xmlns="http://www.w3.org/2000/svg" xmlns:xlink="http://www.w3.org/1999/xlink">
<g id="graph0" class="graph" transform="scale(1 1) rotate(0) translate(18 388.32)">
<title>G</title>
<polygon fill="white" stroke="none" points="-18,18 -18,-388.32 682.06,-388.32 682.06,18 -18,18"/>
<!-- personnel -->
<g id="node1" class="node">
<title>personnel</title>
<polygon fill="#dbeafe" stroke="#334155" points="373.75,-370.32 270.25,-370.32 270.25,-334.32 373.75,-334.32 373.75,-370.32"/>
<text xml:space="preserve" text-anchor="middle" x="322" y="-349.02" font-family="Arial" font-size="11.00">School Personnel</text>
</g>
<!-- super_admin -->
<g id="node2" class="node">
<title>super_admin</title>
<polygon fill="#f8fafc" stroke="#334155" points="114.43,-293.32 33.57,-293.32 33.57,-257.32 114.43,-257.32 114.43,-293.32"/>
<text xml:space="preserve" text-anchor="middle" x="74" y="-272.02" font-family="Arial" font-size="11.00">Super Admin</text>
</g>
<!-- personnel&#45;&gt;super_admin -->
<g id="edge1" class="edge">
<title>personnel&#45;&gt;super_admin</title>
<path fill="none" stroke="#334155" d="M270.01,-352C197.29,-352 74,-352 74,-352 74,-352 74,-302.01 74,-302.01"/>
<polygon fill="#334155" stroke="#334155" points="76.45,-302.01 74,-295.01 71.55,-302.01 76.45,-302.01"/>
</g>
<!-- admin -->
<g id="node3" class="node">
<title>admin</title>
<polygon fill="#f8fafc" stroke="#334155" points="224,-293.32 170,-293.32 170,-257.32 224,-257.32 224,-293.32"/>
<text xml:space="preserve" text-anchor="middle" x="197" y="-272.02" font-family="Arial" font-size="11.00">Admin</text>
</g>
<!-- personnel&#45;&gt;admin -->
<g id="edge2" class="edge">
<title>personnel&#45;&gt;admin</title>
<path fill="none" stroke="#334155" d="M280.65,-333.95C280.65,-312.82 280.65,-281 280.65,-281 280.65,-281 232.9,-281 232.9,-281"/>
<polygon fill="#334155" stroke="#334155" points="232.9,-278.55 225.9,-281 232.9,-283.45 232.9,-278.55"/>
</g>
<!-- registrar -->
<g id="node4" class="node">
<title>registrar</title>
<polygon fill="#f8fafc" stroke="#334155" points="352.95,-293.32 291.05,-293.32 291.05,-257.32 352.95,-257.32 352.95,-293.32"/>
<text xml:space="preserve" text-anchor="middle" x="322" y="-272.02" font-family="Arial" font-size="11.00">Registrar</text>
</g>
<!-- personnel&#45;&gt;registrar -->
<g id="edge3" class="edge">
<title>personnel&#45;&gt;registrar</title>
<path fill="none" stroke="#334155" d="M322,-334.07C322,-334.07 322,-302.22 322,-302.22"/>
<polygon fill="#334155" stroke="#334155" points="324.45,-302.22 322,-295.22 319.55,-302.22 324.45,-302.22"/>
</g>
<!-- finance -->
<g id="node5" class="node">
<title>finance</title>
<polygon fill="#f8fafc" stroke="#334155" points="481.05,-293.32 398.95,-293.32 398.95,-257.32 481.05,-257.32 481.05,-293.32"/>
<text xml:space="preserve" text-anchor="middle" x="440" y="-272.02" font-family="Arial" font-size="11.00">Finance Staff</text>
</g>
<!-- personnel&#45;&gt;finance -->
<g id="edge4" class="edge">
<title>personnel&#45;&gt;finance</title>
<path fill="none" stroke="#334155" d="M363.35,-334C363.35,-311.13 363.35,-275 363.35,-275 363.35,-275 390.02,-275 390.02,-275"/>
<polygon fill="#334155" stroke="#334155" points="390.02,-277.45 397.02,-275 390.02,-272.55 390.02,-277.45"/>
</g>
<!-- teacher -->
<g id="node6" class="node">
<title>teacher</title>
<polygon fill="#f8fafc" stroke="#334155" points="589.82,-293.32 532.18,-293.32 532.18,-257.32 589.82,-257.32 589.82,-293.32"/>
<text xml:space="preserve" text-anchor="middle" x="561" y="-272.02" font-family="Arial" font-size="11.00">Teacher</text>
</g>
<!-- personnel&#45;&gt;teacher -->
<g id="edge5" class="edge">
<title>personnel&#45;&gt;teacher</title>
<path fill="none" stroke="#334155" d="M374.15,-352C444.48,-352 561,-352 561,-352 561,-352 561,-302.01 561,-302.01"/>
<polygon fill="#334155" stroke="#334155" points="563.45,-302.01 561,-295.01 558.55,-302.01 563.45,-302.01"/>
</g>
<!-- system -->
<g id="node7" class="node">
<title>system</title>
<polygon fill="#dcfce7" stroke="#334155" points="413.74,-206.52 230.26,-206.52 230.26,-163.8 413.74,-163.8 413.74,-206.52"/>
<text xml:space="preserve" text-anchor="middle" x="322" y="-189.06" font-family="Arial" font-size="13.00">MarriottConnect</text>
<text xml:space="preserve" text-anchor="middle" x="322" y="-173.46" font-family="Arial" font-size="13.00">School Management System</text>
</g>
<!-- super_admin&#45;&gt;system -->
<g id="edge6" class="edge">
<title>super_admin&#45;&gt;system</title>
<path fill="none" stroke="#334155" d="M74,-257.04C74,-230.65 74,-185 74,-185 74,-185 221.49,-185 221.49,-185"/>
<polygon fill="#334155" stroke="#334155" points="221.49,-187.45 228.49,-185 221.49,-182.55 221.49,-187.45"/>
<text xml:space="preserve" text-anchor="middle" x="62.53" y="-229.22" font-family="Arial" font-size="9.00">accounts, permissions, settings</text>
</g>
<!-- admin&#45;&gt;system -->
<g id="edge7" class="edge">
<title>admin&#45;&gt;system</title>
<path fill="none" stroke="#334155" d="M224.25,-269C237.35,-269 250.26,-269 250.26,-269 250.26,-269 250.26,-215.26 250.26,-215.26"/>
<polygon fill="#334155" stroke="#334155" points="252.71,-215.26 250.26,-208.26 247.81,-215.26 252.71,-215.26"/>
<text xml:space="preserve" text-anchor="middle" x="223.29" y="-229.22" font-family="Arial" font-size="9.00">academic setup, grade verification</text>
</g>
<!-- registrar&#45;&gt;system -->
<g id="edge8" class="edge">
<title>registrar&#45;&gt;system</title>
<path fill="none" stroke="#334155" d="M322,-257.07C322,-257.07 322,-215.39 322,-215.39"/>
<polygon fill="#334155" stroke="#334155" points="324.45,-215.39 322,-208.39 319.55,-215.39 324.45,-215.39"/>
<text xml:space="preserve" text-anchor="middle" x="376.53" y="-229.22" font-family="Arial" font-size="9.00">student records, enrollment</text>
</g>
<!-- finance&#45;&gt;system -->
<g id="edge9" class="edge">
<title>finance&#45;&gt;system</title>
<path fill="none" stroke="#334155" d="M406.35,-257.07C406.35,-257.07 406.35,-215.39 406.35,-215.39"/>
<polygon fill="#334155" stroke="#334155" points="408.8,-215.39 406.35,-208.39 403.9,-215.39 408.8,-215.39"/>
<text xml:space="preserve" text-anchor="middle" x="508.78" y="-229.22" font-family="Arial" font-size="9.00">fees, payments, ledgers</text>
</g>
<!-- teacher&#45;&gt;system -->
<g id="edge10" class="edge">
<title>teacher&#45;&gt;system</title>
<path fill="none" stroke="#334155" d="M561,-257.04C561,-230.65 561,-185 561,-185 561,-185 422.58,-185 422.58,-185"/>
<polygon fill="#334155" stroke="#334155" points="422.58,-182.55 415.58,-185 422.58,-187.45 422.58,-182.55"/>
<text xml:space="preserve" text-anchor="middle" x="625.53" y="-229.22" font-family="Arial" font-size="9.00">attendance, grades</text>
</g>
<!-- portal -->
<g id="node8" class="node">
<title>portal</title>
<polygon fill="#fef3c7" stroke="#334155" points="360.9,-113 283.1,-113 283.1,-77 360.9,-77 360.9,-113"/>
<text xml:space="preserve" text-anchor="middle" x="322" y="-91.7" font-family="Arial" font-size="11.00">Portal Users</text>
</g>
<!-- system&#45;&gt;portal -->
<g id="edge11" class="edge">
<title>system&#45;&gt;portal</title>
<path fill="none" stroke="#334155" d="M322,-163.33C322,-163.33 322,-121.8 322,-121.8"/>
<polygon fill="#334155" stroke="#334155" points="324.45,-121.8 322,-114.8 319.55,-121.8 324.45,-121.8"/>
<text xml:space="preserve" text-anchor="middle" x="383.54" y="-135.7" font-family="Arial" font-size="9.00">dashboards and record access</text>
</g>
<!-- student -->
<g id="node9" class="node">
<title>student</title>
<polygon fill="#f8fafc" stroke="#334155" points="309.6,-36 254.4,-36 254.4,0 309.6,0 309.6,-36"/>
<text xml:space="preserve" text-anchor="middle" x="282" y="-14.7" font-family="Arial" font-size="11.00">Student</text>
</g>
<!-- portal&#45;&gt;student -->
<g id="edge12" class="edge">
<title>portal&#45;&gt;student</title>
<path fill="none" stroke="#334155" d="M296.35,-76.75C296.35,-76.75 296.35,-44.9 296.35,-44.9"/>
<polygon fill="#334155" stroke="#334155" points="298.8,-44.9 296.35,-37.9 293.9,-44.9 298.8,-44.9"/>
</g>
<!-- parent -->
<g id="node10" class="node">
<title>parent</title>
<polygon fill="#f8fafc" stroke="#334155" points="389,-36 335,-36 335,0 389,0 389,-36"/>
<text xml:space="preserve" text-anchor="middle" x="362" y="-14.7" font-family="Arial" font-size="11.00">Parent</text>
</g>
<!-- portal&#45;&gt;parent -->
<g id="edge13" class="edge">
<title>portal&#45;&gt;parent</title>
<path fill="none" stroke="#334155" d="M347.95,-76.75C347.95,-76.75 347.95,-44.9 347.95,-44.9"/>
<polygon fill="#334155" stroke="#334155" points="350.4,-44.9 347.95,-37.9 345.5,-44.9 350.4,-44.9"/>
</g>
</g>
</svg>
