<?xml version="1.0" encoding="UTF-8" standalone="no"?>
<!DOCTYPE svg PUBLIC "-//W3C//DTD SVG 1.1//EN"
 "http://www.w3.org/Graphics/SVG/1.1/DTD/svg11.dtd">
<!-- Generated by graphviz version 14.1.5 (20260411.2331)
 -->
<!-- Title: G Pages: 1 -->
<svg width="349pt" height="436pt"
 viewBox="0.00 0.00 349.00 436.00" xmlns="http://www.w3.org/2000/svg" xmlns:xlink="http://www.w3.org/1999/xlink">
<g id="graph0" class="graph" transform="scale(1 1) rotate(0) translate(18 418)">
<title>G</title>
<polygon fill="white" stroke="none" points="-18,18 -18,-418 331.48,-418 331.48,18 -18,18"/>
<!-- access -->
<g id="node1" class="node">
<title>access</title>
<polygon fill="#dbeafe" stroke="#334155" points="192.73,-400 76.08,-400 76.08,-364 192.73,-364 192.73,-400"/>
<text xml:space="preserve" text-anchor="middle" x="134.4" y="-379" font-family="Arial" font-size="10.00">1. User Access Control</text>
</g>
<!-- academic -->
<g id="node2" class="node">
<title>academic</title>
<polygon fill="#dbeafe" stroke="#334155" points="183.57,-327.2 85.24,-327.2 85.24,-291.2 183.57,-291.2 183.57,-327.2"/>
<text xml:space="preserve" text-anchor="middle" x="134.4" y="-306.2" font-family="Arial" font-size="10.00">2. Academic Setup</text>
</g>
<!-- access&#45;&gt;academic -->
<g id="edge1" class="edge">
<title>access&#45;&gt;academic</title>
<path fill="none" stroke="#334155" d="M134.4,-363.63C134.4,-363.63 134.4,-336.08 134.4,-336.08"/>
<polygon fill="#334155" stroke="#334155" points="136.85,-336.08 134.4,-329.08 131.95,-336.08 136.85,-336.08"/>
<text xml:space="preserve" text-anchor="middle" x="167.68" y="-342.9" font-family="Arial" font-size="9.00">authorized setup</text>
</g>
<!-- records -->
<g id="node3" class="node">
<title>records</title>
<polygon fill="#dcfce7" stroke="#334155" points="208.03,-254.4 60.78,-254.4 60.78,-218.4 208.03,-218.4 208.03,-254.4"/>
<text xml:space="preserve" text-anchor="middle" x="134.4" y="-233.4" font-family="Arial" font-size="10.00">3. Student and Class Records</text>
</g>
<!-- academic&#45;&gt;records -->
<g id="edge2" class="edge">
<title>academic&#45;&gt;records</title>
<path fill="none" stroke="#334155" d="M134.4,-290.83C134.4,-290.83 134.4,-263.28 134.4,-263.28"/>
<polygon fill="#334155" stroke="#334155" points="136.85,-263.28 134.4,-256.28 131.95,-263.28 136.85,-263.28"/>
<text xml:space="preserve" text-anchor="middle" x="218.2" y="-270.1" font-family="Arial" font-size="9.00">school year, subjects, sections, schedules</text>
</g>
<!-- grading -->
<g id="node4" class="node">
<title>grading</title>
<polygon fill="#dcfce7" stroke="#334155" points="216.65,-181.6 52.16,-181.6 52.16,-145.6 216.65,-145.6 216.65,-181.6"/>
<text xml:space="preserve" text-anchor="middle" x="134.4" y="-160.6" font-family="Arial" font-size="10.00">4. Grade and Permanent Records</text>
</g>
<!-- records&#45;&gt;grading -->
<g id="edge3" class="edge">
<title>records&#45;&gt;grading</title>
<path fill="none" stroke="#334155" d="M134.4,-218.03C134.4,-218.03 134.4,-190.48 134.4,-190.48"/>
<polygon fill="#334155" stroke="#334155" points="136.85,-190.48 134.4,-183.48 131.95,-190.48 136.85,-190.48"/>
<text xml:space="preserve" text-anchor="middle" x="201.94" y="-197.3" font-family="Arial" font-size="9.00">enrollment, attendance, class lists</text>
</g>
<!-- finance -->
<g id="node5" class="node">
<title>finance</title>
<polygon fill="#fef3c7" stroke="#334155" points="152.81,-108.8 0,-108.8 0,-72.8 152.81,-72.8 152.81,-108.8"/>
<text xml:space="preserve" text-anchor="middle" x="76.4" y="-87.8" font-family="Arial" font-size="10.00">5. Finance and Communication</text>
</g>
<!-- grading&#45;&gt;finance -->
<g id="edge4" class="edge">
<title>grading&#45;&gt;finance</title>
<path fill="none" stroke="#334155" d="M102.49,-145.23C102.49,-145.23 102.49,-117.68 102.49,-117.68"/>
<polygon fill="#334155" stroke="#334155" points="104.94,-117.68 102.49,-110.68 100.04,-117.68 104.94,-117.68"/>
<text xml:space="preserve" text-anchor="middle" x="126.68" y="-124.5" font-family="Arial" font-size="9.00">verified academic status</text>
</g>
<!-- output -->
<g id="node6" class="node">
<title>output</title>
<polygon fill="#ede9fe" stroke="#334155" points="211.98,-36 50.83,-36 50.83,0 211.98,0 211.98,-36"/>
<text xml:space="preserve" text-anchor="middle" x="131.4" y="-15" font-family="Arial" font-size="10.00">6. Portal and Governance Output</text>
</g>
<!-- grading&#45;&gt;output -->
<g id="edge6" class="edge">
<title>grading&#45;&gt;output</title>
<path fill="none" stroke="#334155" d="M182.4,-145.16C182.4,-145.16 182.4,-44.8 182.4,-44.8"/>
<polygon fill="#334155" stroke="#334155" points="184.85,-44.8 182.4,-37.8 179.95,-44.8 184.85,-44.8"/>
<text xml:space="preserve" text-anchor="middle" x="251.94" y="-88.1" font-family="Arial" font-size="9.00">grades and permanent records</text>
</g>
<!-- finance&#45;&gt;output -->
<g id="edge5" class="edge">
<title>finance&#45;&gt;output</title>
<path fill="none" stroke="#334155" d="M101.82,-72.43C101.82,-72.43 101.82,-44.88 101.82,-44.88"/>
<polygon fill="#334155" stroke="#334155" points="104.27,-44.88 101.82,-37.88 99.37,-44.88 104.27,-44.88"/>
<text xml:space="preserve" text-anchor="middle" x="124.18" y="-51.7" font-family="Arial" font-size="9.00">billing, notices, reminders</text>
</g>
</g>
</svg>
