<?xml version="1.0" encoding="UTF-8" standalone="no"?>
<!DOCTYPE svg PUBLIC "-//W3C//DTD SVG 1.1//EN"
 "http://www.w3.org/Graphics/SVG/1.1/DTD/svg11.dtd">
<!-- Generated by graphviz version 14.1.5 (20260411.2331)
 -->
<!-- Title: G Pages: 1 -->
<svg width="903pt" height="503pt"
 viewBox="0.00 0.00 903.00 503.00" xmlns="http://www.w3.org/2000/svg" xmlns:xlink="http://www.w3.org/1999/xlink">
<g id="graph0" class="graph" transform="scale(1 1) rotate(0) translate(18 485.2)">
<title>G</title>
<polygon fill="white" stroke="none" points="-18,18 -18,-485.2 885,-485.2 885,18 -18,18"/>
<g id="clust1" class="cluster">
<title>cluster_academic</title>
<path fill="white" stroke="#93c5fd" d="M20,-76C20,-76 170,-76 170,-76 176,-76 182,-82 182,-88 182,-88 182,-447.2 182,-447.2 182,-453.2 176,-459.2 170,-459.2 170,-459.2 20,-459.2 20,-459.2 14,-459.2 8,-453.2 8,-447.2 8,-447.2 8,-88 8,-88 8,-82 14,-76 20,-76"/>
<text xml:space="preserve" text-anchor="middle" x="95" y="-442.6" font-family="Times,serif" font-size="14.00">Academic Structure</text>
</g>
<g id="clust2" class="cluster">
<title>cluster_learner</title>
<path fill="white" stroke="#86efac" d="M582,-76C582,-76 847,-76 847,-76 853,-76 859,-82 859,-88 859,-88 859,-302.4 859,-302.4 859,-308.4 853,-314.4 847,-314.4 847,-314.4 582,-314.4 582,-314.4 576,-314.4 570,-308.4 570,-302.4 570,-302.4 570,-88 570,-88 570,-82 576,-76 582,-76"/>
<text xml:space="preserve" text-anchor="middle" x="714.5" y="-297.8" font-family="Times,serif" font-size="14.00">Learner Records</text>
</g>
<g id="clust3" class="cluster">
<title>cluster_grading</title>
<path fill="white" stroke="#86efac" d="M202,-8C202,-8 550,-8 550,-8 556,-8 562,-14 562,-20 562,-20 562,-140.8 562,-140.8 562,-146.8 556,-152.8 550,-152.8 550,-152.8 202,-152.8 202,-152.8 196,-152.8 190,-146.8 190,-140.8 190,-140.8 190,-20 190,-20 190,-14 196,-8 202,-8"/>
<text xml:space="preserve" text-anchor="middle" x="376" y="-136.2" font-family="Times,serif" font-size="14.00">Grading Records</text>
</g>
<g id="clust4" class="cluster">
<title>cluster_remedial</title>
<path fill="white" stroke="#86efac" d="M218,-160.8C218,-160.8 503,-160.8 503,-160.8 509,-160.8 515,-166.8 515,-172.8 515,-172.8 515,-225.6 515,-225.6 515,-231.6 509,-237.6 503,-237.6 503,-237.6 218,-237.6 218,-237.6 212,-237.6 206,-231.6 206,-225.6 206,-225.6 206,-172.8 206,-172.8 206,-166.8 212,-160.8 218,-160.8"/>
<text xml:space="preserve" text-anchor="middle" x="360.5" y="-221" font-family="Times,serif" font-size="14.00">Remedial Records</text>
</g>
<!-- academic_years -->
<g id="node1" class="node">
<title>academic_years</title>
<polygon fill="#dbeafe" stroke="#334155" points="173.53,-426.4 96.47,-426.4 96.47,-390.4 173.53,-390.4 173.53,-426.4"/>
<text xml:space="preserve" text-anchor="middle" x="135" y="-405.7" font-family="Arial" font-size="9.00">academic_years</text>
</g>
<!-- sections -->
<g id="node4" class="node">
<title>sections</title>
<polygon fill="#f8fafc" stroke="#334155" points="168,-358.4 114,-358.4 114,-322.4 168,-322.4 168,-358.4"/>
<text xml:space="preserve" text-anchor="middle" x="141" y="-337.7" font-family="Arial" font-size="9.00">sections</text>
</g>
<!-- academic_years&#45;&gt;sections -->
<g id="edge1" class="edge">
<title>academic_years&#45;&gt;sections</title>
<path fill="none" stroke="#334155" d="M150,-390.18C150,-390.18 150,-365.69 150,-365.69"/>
<polygon fill="#334155" stroke="#334155" points="151.93,-365.69 150,-360.19 148.08,-365.69 151.93,-365.69"/>
</g>
<!-- enrollments -->
<g id="node9" class="node">
<title>enrollments</title>
<polygon fill="#f8fafc" stroke="#334155" points="851.02,-204.8 792.98,-204.8 792.98,-168.8 851.02,-168.8 851.02,-204.8"/>
<text xml:space="preserve" text-anchor="middle" x="822" y="-184.1" font-family="Arial" font-size="9.00">enrollments</text>
</g>
<!-- academic_years&#45;&gt;enrollments -->
<g id="edge9" class="edge">
<title>academic_years&#45;&gt;enrollments</title>
<path fill="none" stroke="#334155" d="M173.88,-408C321.55,-408 839.41,-408 839.41,-408 839.41,-408 839.41,-212.29 839.41,-212.29"/>
<polygon fill="#334155" stroke="#334155" points="841.34,-212.29 839.41,-206.79 837.49,-212.29 841.34,-212.29"/>
</g>
<!-- grade_levels -->
<g id="node2" class="node">
<title>grade_levels</title>
<polygon fill="#f8fafc" stroke="#334155" points="78.28,-426.4 15.72,-426.4 15.72,-390.4 78.28,-390.4 78.28,-426.4"/>
<text xml:space="preserve" text-anchor="middle" x="47" y="-405.7" font-family="Arial" font-size="9.00">grade_levels</text>
</g>
<!-- subjects -->
<g id="node3" class="node">
<title>subjects</title>
<polygon fill="#f8fafc" stroke="#334155" points="96,-358.4 42,-358.4 42,-322.4 96,-322.4 96,-358.4"/>
<text xml:space="preserve" text-anchor="middle" x="69" y="-337.7" font-family="Arial" font-size="9.00">subjects</text>
</g>
<!-- grade_levels&#45;&gt;subjects -->
<g id="edge3" class="edge">
<title>grade_levels&#45;&gt;subjects</title>
<path fill="none" stroke="#334155" d="M51.07,-390.18C51.07,-390.18 51.07,-365.69 51.07,-365.69"/>
<polygon fill="#334155" stroke="#334155" points="52.99,-365.69 51.07,-360.19 49.14,-365.69 52.99,-365.69"/>
</g>
<!-- grade_levels&#45;&gt;sections -->
<g id="edge2" class="edge">
<title>grade_levels&#45;&gt;sections</title>
<path fill="none" stroke="#334155" d="M60.14,-390.08C60.14,-379.8 60.14,-369 60.14,-369 60.14,-369 132,-369 132,-369 132,-369 132,-365.69 132,-365.69"/>
<polygon fill="#334155" stroke="#334155" points="133.93,-365.69 132,-360.19 130.08,-365.69 133.93,-365.69"/>
</g>
<!-- grade_levels&#45;&gt;enrollments -->
<g id="edge10" class="edge">
<title>grade_levels&#45;&gt;enrollments</title>
<path fill="none" stroke="#334155" d="M69.21,-389.93C69.21,-384.51 69.21,-380 69.21,-380 69.21,-380 827.8,-380 827.8,-380 827.8,-380 827.8,-211.99 827.8,-211.99"/>
<polygon fill="#334155" stroke="#334155" points="829.73,-211.99 827.8,-206.49 825.88,-211.99 829.73,-211.99"/>
</g>
<!-- teacher_subjects -->
<g id="node5" class="node">
<title>teacher_subjects</title>
<polygon fill="#f8fafc" stroke="#334155" points="112.78,-281.6 33.22,-281.6 33.22,-245.6 112.78,-245.6 112.78,-281.6"/>
<text xml:space="preserve" text-anchor="middle" x="73" y="-260.9" font-family="Arial" font-size="9.00">teacher_subjects</text>
</g>
<!-- subjects&#45;&gt;teacher_subjects -->
<g id="edge4" class="edge">
<title>subjects&#45;&gt;teacher_subjects</title>
<path fill="none" stroke="#334155" d="M55.5,-322.2C55.5,-322.2 55.5,-288.95 55.5,-288.95"/>
<polygon fill="#334155" stroke="#334155" points="57.43,-288.95 55.5,-283.45 53.58,-288.95 57.43,-288.95"/>
</g>
<!-- remedial_records -->
<g id="node20" class="node">
<title>remedial_records</title>
<polygon fill="#f8fafc" stroke="#334155" points="414.53,-204.8 333.47,-204.8 333.47,-168.8 414.53,-168.8 414.53,-204.8"/>
<text xml:space="preserve" text-anchor="middle" x="374" y="-184.1" font-family="Arial" font-size="9.00">remedial_records</text>
</g>
<!-- subjects&#45;&gt;remedial_records -->
<g id="edge25" class="edge">
<title>subjects&#45;&gt;remedial_records</title>
<path fill="none" stroke="#334155" d="M82.5,-322.13C82.5,-315.23 82.5,-309 82.5,-309 82.5,-309 360.49,-309 360.49,-309 360.49,-309 360.49,-212.11 360.49,-212.11"/>
<polygon fill="#334155" stroke="#334155" points="362.42,-212.11 360.49,-206.61 358.57,-212.11 362.42,-212.11"/>
</g>
<!-- remedial_subject_fees -->
<g id="node21" class="node">
<title>remedial_subject_fees</title>
<polygon fill="#f8fafc" stroke="#334155" points="315.79,-204.8 214.21,-204.8 214.21,-168.8 315.79,-168.8 315.79,-204.8"/>
<text xml:space="preserve" text-anchor="middle" x="265" y="-184.1" font-family="Arial" font-size="9.00">remedial_subject_fees</text>
</g>
<!-- subjects&#45;&gt;remedial_subject_fees -->
<g id="edge26" class="edge">
<title>subjects&#45;&gt;remedial_subject_fees</title>
<path fill="none" stroke="#334155" d="M69,-321.93C69,-309.36 69,-295 69,-295 69,-295 265,-295 265,-295 265,-295 265,-212.17 265,-212.17"/>
<polygon fill="#334155" stroke="#334155" points="266.93,-212.17 265,-206.67 263.08,-212.17 266.93,-212.17"/>
</g>
<!-- subject_assignments -->
<g id="node6" class="node">
<title>subject_assignments</title>
<polygon fill="#f8fafc" stroke="#334155" points="173.78,-204.8 78.22,-204.8 78.22,-168.8 173.78,-168.8 173.78,-204.8"/>
<text xml:space="preserve" text-anchor="middle" x="126" y="-184.1" font-family="Arial" font-size="9.00">subject_assignments</text>
</g>
<!-- sections&#45;&gt;subject_assignments -->
<g id="edge5" class="edge">
<title>sections&#45;&gt;subject_assignments</title>
<path fill="none" stroke="#334155" d="M141,-322.18C141,-322.18 141,-212.01 141,-212.01"/>
<polygon fill="#334155" stroke="#334155" points="142.93,-212.01 141,-206.51 139.08,-212.01 142.93,-212.01"/>
</g>
<!-- sections&#45;&gt;enrollments -->
<g id="edge11" class="edge">
<title>sections&#45;&gt;enrollments</title>
<path fill="none" stroke="#334155" d="M168.3,-340C294.62,-340 816.2,-340 816.2,-340 816.2,-340 816.2,-212.29 816.2,-212.29"/>
<polygon fill="#334155" stroke="#334155" points="818.12,-212.29 816.2,-206.79 814.27,-212.29 818.12,-212.29"/>
</g>
<!-- teacher_subjects&#45;&gt;subject_assignments -->
<g id="edge6" class="edge">
<title>teacher_subjects&#45;&gt;subject_assignments</title>
<path fill="none" stroke="#334155" d="M95.5,-245.4C95.5,-245.4 95.5,-212.15 95.5,-212.15"/>
<polygon fill="#334155" stroke="#334155" points="97.42,-212.15 95.5,-206.65 93.57,-212.15 97.42,-212.15"/>
</g>
<!-- class_schedules -->
<g id="node7" class="node">
<title>class_schedules</title>
<polygon fill="#f8fafc" stroke="#334155" points="164.78,-120 87.22,-120 87.22,-84 164.78,-84 164.78,-120"/>
<text xml:space="preserve" text-anchor="middle" x="126" y="-99.3" font-family="Arial" font-size="9.00">class_schedules</text>
</g>
<!-- subject_assignments&#45;&gt;class_schedules -->
<g id="edge7" class="edge">
<title>subject_assignments&#45;&gt;class_schedules</title>
<path fill="none" stroke="#334155" d="M126,-168.4C126,-168.4 126,-127.38 126,-127.38"/>
<polygon fill="#334155" stroke="#334155" points="127.93,-127.38 126,-121.88 124.08,-127.38 127.93,-127.38"/>
</g>
<!-- attendances -->
<g id="node10" class="node">
<title>attendances</title>
<polygon fill="#f8fafc" stroke="#334155" points="714.28,-120 653.72,-120 653.72,-84 714.28,-84 714.28,-120"/>
<text xml:space="preserve" text-anchor="middle" x="684" y="-99.3" font-family="Arial" font-size="9.00">attendances</text>
</g>
<!-- subject_assignments&#45;&gt;attendances -->
<g id="edge13" class="edge">
<title>subject_assignments&#45;&gt;attendances</title>
<path fill="none" stroke="#334155" d="M171.98,-168.52C171.98,-164.8 171.98,-162 171.98,-162 171.98,-162 660.75,-162 660.75,-162 660.75,-162 660.75,-127.34 660.75,-127.34"/>
<polygon fill="#334155" stroke="#334155" points="662.68,-127.34 660.75,-121.84 658.83,-127.34 662.68,-127.34"/>
</g>
<!-- graded_activities -->
<g id="node15" class="node">
<title>graded_activities</title>
<polygon fill="#f8fafc" stroke="#334155" points="475.53,-120 396.47,-120 396.47,-84 475.53,-84 475.53,-120"/>
<text xml:space="preserve" text-anchor="middle" x="436" y="-99.3" font-family="Arial" font-size="9.00">graded_activities</text>
</g>
<!-- subject_assignments&#45;&gt;graded_activities -->
<g id="edge17" class="edge">
<title>subject_assignments&#45;&gt;graded_activities</title>
<path fill="none" stroke="#334155" d="M168.38,-168.31C168.38,-158.32 168.38,-148 168.38,-148 168.38,-148 405.5,-148 405.5,-148 405.5,-148 405.5,-127.46 405.5,-127.46"/>
<polygon fill="#334155" stroke="#334155" points="407.42,-127.46 405.5,-121.96 403.57,-127.46 407.42,-127.46"/>
</g>
<!-- final_grades -->
<g id="node17" class="node">
<title>final_grades</title>
<polygon fill="#f8fafc" stroke="#334155" points="554.28,-120 493.72,-120 493.72,-84 554.28,-84 554.28,-120"/>
<text xml:space="preserve" text-anchor="middle" x="524" y="-99.3" font-family="Arial" font-size="9.00">final_grades</text>
</g>
<!-- subject_assignments&#45;&gt;final_grades -->
<g id="edge21" class="edge">
<title>subject_assignments&#45;&gt;final_grades</title>
<path fill="none" stroke="#334155" d="M170.18,-168.3C170.18,-161.31 170.18,-155 170.18,-155 170.18,-155 500.5,-155 500.5,-155 500.5,-155 500.5,-127.25 500.5,-127.25"/>
<polygon fill="#334155" stroke="#334155" points="502.42,-127.25 500.5,-121.75 498.57,-127.25 502.42,-127.25"/>
</g>
<!-- grade_submissions -->
<g id="node18" class="node">
<title>grade_submissions</title>
<polygon fill="#f8fafc" stroke="#334155" points="378.53,-120 289.47,-120 289.47,-84 378.53,-84 378.53,-120"/>
<text xml:space="preserve" text-anchor="middle" x="334" y="-99.3" font-family="Arial" font-size="9.00">grade_submissions</text>
</g>
<!-- subject_assignments&#45;&gt;grade_submissions -->
<g id="edge22" class="edge">
<title>subject_assignments&#45;&gt;grade_submissions</title>
<path fill="none" stroke="#334155" d="M166.58,-168.33C166.58,-153.11 166.58,-134 166.58,-134 166.58,-134 302.63,-134 302.63,-134 302.63,-134 302.63,-127.26 302.63,-127.26"/>
<polygon fill="#334155" stroke="#334155" points="304.55,-127.26 302.63,-121.76 300.7,-127.26 304.55,-127.26"/>
</g>
<!-- students -->
<g id="node8" class="node">
<title>students</title>
<polygon fill="#dcfce7" stroke="#334155" points="641,-281.6 587,-281.6 587,-245.6 641,-245.6 641,-281.6"/>
<text xml:space="preserve" text-anchor="middle" x="614" y="-260.9" font-family="Arial" font-size="9.00">students</text>
</g>
<!-- students&#45;&gt;enrollments -->
<g id="edge8" class="edge">
<title>students&#45;&gt;enrollments</title>
<path fill="none" stroke="#334155" d="M641.31,-270C694.01,-270 804.59,-270 804.59,-270 804.59,-270 804.59,-212.28 804.59,-212.28"/>
<polygon fill="#334155" stroke="#334155" points="806.51,-212.28 804.59,-206.78 802.66,-212.28 806.51,-212.28"/>
</g>
<!-- permanent_records -->
<g id="node12" class="node">
<title>permanent_records</title>
<polygon fill="#f8fafc" stroke="#334155" points="667.78,-204.8 578.22,-204.8 578.22,-168.8 667.78,-168.8 667.78,-204.8"/>
<text xml:space="preserve" text-anchor="middle" x="623" y="-184.1" font-family="Arial" font-size="9.00">permanent_records</text>
</g>
<!-- students&#45;&gt;permanent_records -->
<g id="edge15" class="edge">
<title>students&#45;&gt;permanent_records</title>
<path fill="none" stroke="#334155" d="M614,-245.4C614,-245.4 614,-212.15 614,-212.15"/>
<polygon fill="#334155" stroke="#334155" points="615.93,-212.15 614,-206.65 612.08,-212.15 615.93,-212.15"/>
</g>
<!-- student_departures -->
<g id="node13" class="node">
<title>student_departures</title>
<polygon fill="#f8fafc" stroke="#334155" points="774.54,-204.8 685.46,-204.8 685.46,-168.8 774.54,-168.8 774.54,-204.8"/>
<text xml:space="preserve" text-anchor="middle" x="730" y="-184.1" font-family="Arial" font-size="9.00">student_departures</text>
</g>
<!-- students&#45;&gt;student_departures -->
<g id="edge16" class="edge">
<title>students&#45;&gt;student_departures</title>
<path fill="none" stroke="#334155" d="M641.49,-258C675.79,-258 730,-258 730,-258 730,-258 730,-212.15 730,-212.15"/>
<polygon fill="#334155" stroke="#334155" points="731.93,-212.15 730,-206.65 728.08,-212.15 731.93,-212.15"/>
</g>
<!-- student_scores -->
<g id="node16" class="node">
<title>student_scores</title>
<polygon fill="#f8fafc" stroke="#334155" points="513.28,-52 440.72,-52 440.72,-16 513.28,-16 513.28,-52"/>
<text xml:space="preserve" text-anchor="middle" x="477" y="-31.3" font-family="Arial" font-size="9.00">student_scores</text>
</g>
<!-- students&#45;&gt;student_scores -->
<g id="edge19" class="edge">
<title>students&#45;&gt;student_scores</title>
<path fill="none" stroke="#334155" d="M586.78,-255C576.05,-255 566.25,-255 566.25,-255 566.25,-255 566.25,-34 566.25,-34 566.25,-34 520.57,-34 520.57,-34"/>
<polygon fill="#334155" stroke="#334155" points="520.57,-32.08 515.07,-34 520.57,-35.93 520.57,-32.08"/>
</g>
<!-- remedial_cases -->
<g id="node19" class="node">
<title>remedial_cases</title>
<polygon fill="#f8fafc" stroke="#334155" points="507.28,-204.8 432.72,-204.8 432.72,-168.8 507.28,-168.8 507.28,-204.8"/>
<text xml:space="preserve" text-anchor="middle" x="470" y="-184.1" font-family="Arial" font-size="9.00">remedial_cases</text>
</g>
<!-- students&#45;&gt;remedial_cases -->
<g id="edge23" class="edge">
<title>students&#45;&gt;remedial_cases</title>
<path fill="none" stroke="#334155" d="M586.58,-264C544.8,-264 470,-264 470,-264 470,-264 470,-212.11 470,-212.11"/>
<polygon fill="#334155" stroke="#334155" points="471.93,-212.11 470,-206.61 468.08,-212.11 471.93,-212.11"/>
</g>
<!-- students&#45;&gt;remedial_records -->
<g id="edge24" class="edge">
<title>students&#45;&gt;remedial_records</title>
<path fill="none" stroke="#334155" d="M586.68,-273C526.44,-273 387.51,-273 387.51,-273 387.51,-273 387.51,-212.09 387.51,-212.09"/>
<polygon fill="#334155" stroke="#334155" points="389.43,-212.09 387.51,-206.59 385.58,-212.09 389.43,-212.09"/>
</g>
<!-- enrollments&#45;&gt;attendances -->
<g id="edge12" class="edge">
<title>enrollments&#45;&gt;attendances</title>
<path fill="none" stroke="#334155" d="M821.76,-168.53C821.76,-150.95 821.76,-127 821.76,-127 821.76,-127 699.87,-127 699.87,-127 699.87,-127 699.87,-126.34 699.87,-126.34"/>
<polygon fill="#334155" stroke="#334155" points="701.8,-127.45 699.87,-121.95 697.95,-127.45 701.8,-127.45"/>
</g>
<!-- conduct_ratings -->
<g id="node11" class="node">
<title>conduct_ratings</title>
<polygon fill="#f8fafc" stroke="#334155" points="850.53,-120 775.47,-120 775.47,-84 850.53,-84 850.53,-120"/>
<text xml:space="preserve" text-anchor="middle" x="813" y="-99.3" font-family="Arial" font-size="9.00">conduct_ratings</text>
</g>
<!-- enrollments&#45;&gt;conduct_ratings -->
<g id="edge14" class="edge">
<title>enrollments&#45;&gt;conduct_ratings</title>
<path fill="none" stroke="#334155" d="M836.14,-168.4C836.14,-168.4 836.14,-127.38 836.14,-127.38"/>
<polygon fill="#334155" stroke="#334155" points="838.07,-127.38 836.14,-121.88 834.22,-127.38 838.07,-127.38"/>
</g>
<!-- enrollments&#45;&gt;final_grades -->
<g id="edge20" class="edge">
<title>enrollments&#45;&gt;final_grades</title>
<path fill="none" stroke="#334155" d="M807.37,-168.44C807.37,-155.69 807.37,-141 807.37,-141 807.37,-141 530.78,-141 530.78,-141 530.78,-141 530.78,-127.14 530.78,-127.14"/>
<polygon fill="#334155" stroke="#334155" points="532.7,-127.14 530.78,-121.64 528.85,-127.14 532.7,-127.14"/>
</g>
<!-- grading_rubrics -->
<g id="node14" class="node">
<title>grading_rubrics</title>
<polygon fill="#f8fafc" stroke="#334155" points="271.78,-120 198.22,-120 198.22,-84 271.78,-84 271.78,-120"/>
<text xml:space="preserve" text-anchor="middle" x="235" y="-99.3" font-family="Arial" font-size="9.00">grading_rubrics</text>
</g>
<!-- graded_activities&#45;&gt;student_scores -->
<g id="edge18" class="edge">
<title>graded_activities&#45;&gt;student_scores</title>
<path fill="none" stroke="#334155" d="M458.13,-83.78C458.13,-83.78 458.13,-59.29 458.13,-59.29"/>
<polygon fill="#334155" stroke="#334155" points="460.05,-59.29 458.13,-53.79 456.2,-59.29 460.05,-59.29"/>
</g>
</g>
</svg>
