<?xml version="1.0" encoding="UTF-8" standalone="no"?>
<!DOCTYPE svg PUBLIC "-//W3C//DTD SVG 1.1//EN"
 "http://www.w3.org/Graphics/SVG/1.1/DTD/svg11.dtd">
<!-- Generated by graphviz version 14.1.5 (20260411.2331)
 -->
<!-- Title: G Pages: 1 -->
<svg width="814pt" height="233pt"
 viewBox="0.00 0.00 814.00 233.00" xmlns="http://www.w3.org/2000/svg" xmlns:xlink="http://www.w3.org/1999/xlink">
<g id="graph0" class="graph" transform="scale(1 1) rotate(0) translate(18 214.8)">
<title>G</title>
<polygon fill="white" stroke="none" points="-18,18 -18,-214.8 796,-214.8 796,18 -18,18"/>
<g id="clust1" class="cluster">
<title>cluster_finance</title>
<path fill="white" stroke="#facc15" d="M20,-8C20,-8 758,-8 758,-8 764,-8 770,-14 770,-20 770,-20 770,-140.8 770,-140.8 770,-146.8 764,-152.8 758,-152.8 758,-152.8 20,-152.8 20,-152.8 14,-152.8 8,-146.8 8,-140.8 8,-140.8 8,-20 8,-20 8,-14 14,-8 20,-8"/>
<text xml:space="preserve" text-anchor="middle" x="389" y="-136.2" font-family="Times,serif" font-size="14.00">Finance Records</text>
</g>
<!-- students -->
<g id="node1" class="node">
<title>students</title>
<polygon fill="#dcfce7" stroke="#334155" points="339,-196.8 285,-196.8 285,-160.8 339,-160.8 339,-196.8"/>
<text xml:space="preserve" text-anchor="middle" x="312" y="-176.1" font-family="Arial" font-size="9.00">students</text>
</g>
<!-- student_discounts -->
<g id="node6" class="node">
<title>student_discounts</title>
<polygon fill="#f8fafc" stroke="#334155" points="100.03,-52 15.97,-52 15.97,-16 100.03,-16 100.03,-52"/>
<text xml:space="preserve" text-anchor="middle" x="58" y="-31.3" font-family="Arial" font-size="9.00">student_discounts</text>
</g>
<!-- students&#45;&gt;student_discounts -->
<g id="edge2" class="edge">
<title>students&#45;&gt;student_discounts</title>
<path fill="none" stroke="#334155" d="M284.83,-179C223.39,-179 79.1,-179 79.1,-179 79.1,-179 79.1,-59.38 79.1,-59.38"/>
<polygon fill="#334155" stroke="#334155" points="81.03,-59.38 79.1,-53.88 77.18,-59.38 81.03,-59.38"/>
</g>
<!-- billing_schedules -->
<g id="node7" class="node">
<title>billing_schedules</title>
<polygon fill="#f8fafc" stroke="#334155" points="398.03,-120 317.97,-120 317.97,-84 398.03,-84 398.03,-120"/>
<text xml:space="preserve" text-anchor="middle" x="358" y="-99.3" font-family="Arial" font-size="9.00">billing_schedules</text>
</g>
<!-- students&#45;&gt;billing_schedules -->
<g id="edge4" class="edge">
<title>students&#45;&gt;billing_schedules</title>
<path fill="none" stroke="#334155" d="M328.48,-160.6C328.48,-160.6 328.48,-127.35 328.48,-127.35"/>
<polygon fill="#334155" stroke="#334155" points="330.41,-127.35 328.48,-121.85 326.56,-127.35 330.41,-127.35"/>
</g>
<!-- transactions -->
<g id="node8" class="node">
<title>transactions</title>
<polygon fill="#f8fafc" stroke="#334155" points="476.02,-120 415.98,-120 415.98,-84 476.02,-84 476.02,-120"/>
<text xml:space="preserve" text-anchor="middle" x="446" y="-99.3" font-family="Arial" font-size="9.00">transactions</text>
</g>
<!-- students&#45;&gt;transactions -->
<g id="edge5" class="edge">
<title>students&#45;&gt;transactions</title>
<path fill="none" stroke="#334155" d="M339.48,-179C367.54,-179 407.01,-179 407.01,-179 407.01,-179 407.01,-102 407.01,-102 407.01,-102 408.65,-102 408.65,-102"/>
<polygon fill="#334155" stroke="#334155" points="408.65,-103.93 414.15,-102 408.65,-100.08 408.65,-103.93"/>
</g>
<!-- ledger_entries -->
<g id="node10" class="node">
<title>ledger_entries</title>
<polygon fill="#f8fafc" stroke="#334155" points="300.28,-120 231.72,-120 231.72,-84 300.28,-84 300.28,-120"/>
<text xml:space="preserve" text-anchor="middle" x="266" y="-99.3" font-family="Arial" font-size="9.00">ledger_entries</text>
</g>
<!-- students&#45;&gt;ledger_entries -->
<g id="edge10" class="edge">
<title>students&#45;&gt;ledger_entries</title>
<path fill="none" stroke="#334155" d="M292.64,-160.6C292.64,-160.6 292.64,-127.35 292.64,-127.35"/>
<polygon fill="#334155" stroke="#334155" points="294.56,-127.35 292.64,-121.85 290.71,-127.35 294.56,-127.35"/>
</g>
<!-- grade_levels -->
<g id="node2" class="node">
<title>grade_levels</title>
<polygon fill="#dbeafe" stroke="#334155" points="553.28,-196.8 490.72,-196.8 490.72,-160.8 553.28,-160.8 553.28,-196.8"/>
<text xml:space="preserve" text-anchor="middle" x="522" y="-176.1" font-family="Arial" font-size="9.00">grade_levels</text>
</g>
<!-- fees -->
<g id="node4" class="node">
<title>fees</title>
<polygon fill="#fef3c7" stroke="#334155" points="548,-120 494,-120 494,-84 548,-84 548,-120"/>
<text xml:space="preserve" text-anchor="middle" x="521" y="-99.3" font-family="Arial" font-size="9.00">fees</text>
</g>
<!-- grade_levels&#45;&gt;fees -->
<g id="edge1" class="edge">
<title>grade_levels&#45;&gt;fees</title>
<path fill="none" stroke="#334155" d="M521,-160.6C521,-160.6 521,-127.35 521,-127.35"/>
<polygon fill="#334155" stroke="#334155" points="522.93,-127.35 521,-121.85 519.08,-127.35 522.93,-127.35"/>
</g>
<!-- users -->
<g id="node3" class="node">
<title>users</title>
<polygon fill="#dbeafe" stroke="#334155" points="473,-196.8 419,-196.8 419,-160.8 473,-160.8 473,-196.8"/>
<text xml:space="preserve" text-anchor="middle" x="446" y="-176.1" font-family="Arial" font-size="9.00">users</text>
</g>
<!-- users&#45;&gt;transactions -->
<g id="edge6" class="edge">
<title>users&#45;&gt;transactions</title>
<path fill="none" stroke="#334155" d="M437,-160.6C437,-160.6 437,-127.35 437,-127.35"/>
<polygon fill="#334155" stroke="#334155" points="438.93,-127.35 437,-121.85 435.08,-127.35 438.93,-127.35"/>
</g>
<!-- or_number_reservations -->
<g id="node14" class="node">
<title>or_number_reservations</title>
<polygon fill="#f8fafc" stroke="#334155" points="725.53,-52 616.47,-52 616.47,-16 725.53,-16 725.53,-52"/>
<text xml:space="preserve" text-anchor="middle" x="671" y="-31.3" font-family="Arial" font-size="9.00">or_number_reservations</text>
</g>
<!-- users&#45;&gt;or_number_reservations -->
<g id="edge14" class="edge">
<title>users&#45;&gt;or_number_reservations</title>
<path fill="none" stroke="#334155" d="M455,-160.31C455,-150.32 455,-140 455,-140 455,-140 678.76,-140 678.76,-140 678.76,-140 678.76,-59.48 678.76,-59.48"/>
<polygon fill="#334155" stroke="#334155" points="680.68,-59.48 678.76,-53.98 676.83,-59.48 680.68,-59.48"/>
</g>
<!-- transaction_items -->
<g id="node9" class="node">
<title>transaction_items</title>
<polygon fill="#f8fafc" stroke="#334155" points="562.03,-52 479.97,-52 479.97,-16 562.03,-16 562.03,-52"/>
<text xml:space="preserve" text-anchor="middle" x="521" y="-31.3" font-family="Arial" font-size="9.00">transaction_items</text>
</g>
<!-- fees&#45;&gt;transaction_items -->
<g id="edge8" class="edge">
<title>fees&#45;&gt;transaction_items</title>
<path fill="none" stroke="#334155" d="M521,-83.78C521,-83.78 521,-59.29 521,-59.29"/>
<polygon fill="#334155" stroke="#334155" points="522.93,-59.29 521,-53.79 519.08,-59.29 522.93,-59.29"/>
</g>
<!-- discounts -->
<g id="node5" class="node">
<title>discounts</title>
<polygon fill="#f8fafc" stroke="#334155" points="70,-120 16,-120 16,-84 70,-84 70,-120"/>
<text xml:space="preserve" text-anchor="middle" x="43" y="-99.3" font-family="Arial" font-size="9.00">discounts</text>
</g>
<!-- discounts&#45;&gt;student_discounts -->
<g id="edge3" class="edge">
<title>discounts&#45;&gt;student_discounts</title>
<path fill="none" stroke="#334155" d="M43,-83.78C43,-83.78 43,-59.29 43,-59.29"/>
<polygon fill="#334155" stroke="#334155" points="44.93,-59.29 43,-53.79 41.08,-59.29 44.93,-59.29"/>
</g>
<!-- transaction_due_allocations -->
<g id="node12" class="node">
<title>transaction_due_allocations</title>
<polygon fill="#f8fafc" stroke="#334155" points="440.55,-52 317.45,-52 317.45,-16 440.55,-16 440.55,-52"/>
<text xml:space="preserve" text-anchor="middle" x="379" y="-31.3" font-family="Arial" font-size="9.00">transaction_due_allocations</text>
</g>
<!-- billing_schedules&#45;&gt;transaction_due_allocations -->
<g id="edge12" class="edge">
<title>billing_schedules&#45;&gt;transaction_due_allocations</title>
<path fill="none" stroke="#334155" d="M358,-83.78C358,-83.78 358,-59.29 358,-59.29"/>
<polygon fill="#334155" stroke="#334155" points="359.93,-59.29 358,-53.79 356.08,-59.29 359.93,-59.29"/>
</g>
<!-- finance_due_reminder_dispatches -->
<g id="node16" class="node">
<title>finance_due_reminder_dispatches</title>
<polygon fill="#f8fafc" stroke="#334155" points="294.56,-52 145.44,-52 145.44,-16 294.56,-16 294.56,-52"/>
<text xml:space="preserve" text-anchor="middle" x="220" y="-31.3" font-family="Arial" font-size="9.00">finance_due_reminder_dispatches</text>
</g>
<!-- billing_schedules&#45;&gt;finance_due_reminder_dispatches -->
<g id="edge16" class="edge">
<title>billing_schedules&#45;&gt;finance_due_reminder_dispatches</title>
<path fill="none" stroke="#334155" d="M317.88,-102C312.54,-102 308.86,-102 308.86,-102 308.86,-102 308.86,-34 308.86,-34 308.86,-34 301.99,-34 301.99,-34"/>
<polygon fill="#334155" stroke="#334155" points="301.99,-32.08 296.49,-34 301.99,-35.93 301.99,-32.08"/>
</g>
<!-- transactions&#45;&gt;transaction_items -->
<g id="edge7" class="edge">
<title>transactions&#45;&gt;transaction_items</title>
<path fill="none" stroke="#334155" d="M476.22,-102C481.51,-102 485.35,-102 485.35,-102 485.35,-102 485.35,-59.24 485.35,-59.24"/>
<polygon fill="#334155" stroke="#334155" points="487.27,-59.24 485.35,-53.74 483.42,-59.24 487.27,-59.24"/>
</g>
<!-- transactions&#45;&gt;transaction_due_allocations -->
<g id="edge11" class="edge">
<title>transactions&#45;&gt;transaction_due_allocations</title>
<path fill="none" stroke="#334155" d="M428.26,-83.78C428.26,-83.78 428.26,-59.29 428.26,-59.29"/>
<polygon fill="#334155" stroke="#334155" points="430.19,-59.29 428.26,-53.79 426.34,-59.29 430.19,-59.29"/>
</g>
<!-- transactions&#45;&gt;or_number_reservations -->
<g id="edge13" class="edge">
<title>transactions&#45;&gt;or_number_reservations</title>
<path fill="none" stroke="#334155" d="M458.29,-83.8C458.29,-77.97 458.29,-73 458.29,-73 458.29,-73 643.13,-73 643.13,-73 643.13,-73 643.13,-59.14 643.13,-59.14"/>
<polygon fill="#334155" stroke="#334155" points="645.05,-59.14 643.13,-53.64 641.2,-59.14 645.05,-59.14"/>
</g>
<!-- inventory_items -->
<g id="node11" class="node">
<title>inventory_items</title>
<polygon fill="#f8fafc" stroke="#334155" points="762.27,-120 687.73,-120 687.73,-84 762.27,-84 762.27,-120"/>
<text xml:space="preserve" text-anchor="middle" x="725" y="-99.3" font-family="Arial" font-size="9.00">inventory_items</text>
</g>
<!-- inventory_items&#45;&gt;transaction_items -->
<g id="edge9" class="edge">
<title>inventory_items&#45;&gt;transaction_items</title>
<path fill="none" stroke="#334155" d="M706.63,-83.87C706.63,-73.69 706.63,-63 706.63,-63 706.63,-63 557.65,-63 557.65,-63 557.65,-63 557.65,-59.22 557.65,-59.22"/>
<polygon fill="#334155" stroke="#334155" points="559.58,-59.21 557.65,-53.72 555.73,-59.22 559.58,-59.21"/>
</g>
<!-- or_number_sequences -->
<g id="node13" class="node">
<title>or_number_sequences</title>
<polygon fill="#f8fafc" stroke="#334155" points="669.79,-120 566.21,-120 566.21,-84 669.79,-84 669.79,-120"/>
<text xml:space="preserve" text-anchor="middle" x="618" y="-99.3" font-family="Arial" font-size="9.00">or_number_sequences</text>
</g>
<!-- finance_due_reminder_rules -->
<g id="node15" class="node">
<title>finance_due_reminder_rules</title>
<polygon fill="#f8fafc" stroke="#334155" points="213.8,-120 88.2,-120 88.2,-84 213.8,-84 213.8,-120"/>
<text xml:space="preserve" text-anchor="middle" x="151" y="-99.3" font-family="Arial" font-size="9.00">finance_due_reminder_rules</text>
</g>
<!-- finance_due_reminder_rules&#45;&gt;finance_due_reminder_dispatches -->
<g id="edge15" class="edge">
<title>finance_due_reminder_rules&#45;&gt;finance_due_reminder_dispatches</title>
<path fill="none" stroke="#334155" d="M179.62,-83.78C179.62,-83.78 179.62,-59.29 179.62,-59.29"/>
<polygon fill="#334155" stroke="#334155" points="181.55,-59.29 179.62,-53.79 177.7,-59.29 181.55,-59.29"/>
</g>
</g>
</svg>
