<?xml version="1.0" encoding="UTF-8" standalone="no"?>
<!DOCTYPE svg PUBLIC "-//W3C//DTD SVG 1.1//EN"
 "http://www.w3.org/Graphics/SVG/1.1/DTD/svg11.dtd">
<!-- Generated by graphviz version 14.1.5 (20260411.2331)
 -->
<!-- Title: G Pages: 1 -->
<svg width="1299pt" height="274pt"
 viewBox="0.00 0.00 1299.00 274.00" xmlns="http://www.w3.org/2000/svg" xmlns:xlink="http://www.w3.org/1999/xlink">
<g id="graph0" class="graph" transform="scale(1 1) rotate(0) translate(18 255.6)">
<title>G</title>
<polygon fill="white" stroke="none" points="-18,18 -18,-255.6 1280.56,-255.6 1280.56,18 -18,18"/>
<g id="clust1" class="cluster">
<title>cluster_access</title>
<path fill="white" stroke="#93c5fd" d="M20,-76C20,-76 352,-76 352,-76 358,-76 364,-82 364,-88 364,-88 364,-217.6 364,-217.6 364,-223.6 358,-229.6 352,-229.6 352,-229.6 20,-229.6 20,-229.6 14,-229.6 8,-223.6 8,-217.6 8,-217.6 8,-88 8,-88 8,-82 14,-76 20,-76"/>
<text xml:space="preserve" text-anchor="middle" x="186" y="-213" font-family="Times,serif" font-size="14.00">User Access and Governance</text>
</g>
<g id="clust2" class="cluster">
<title>cluster_communication</title>
<path fill="white" stroke="#c4b5fd" d="M384,-8C384,-8 1092,-8 1092,-8 1098,-8 1104,-14 1104,-20 1104,-20 1104,-140.8 1104,-140.8 1104,-146.8 1098,-152.8 1092,-152.8 1092,-152.8 384,-152.8 384,-152.8 378,-152.8 372,-146.8 372,-140.8 372,-140.8 372,-20 372,-20 372,-14 378,-8 384,-8"/>
<text xml:space="preserve" text-anchor="middle" x="738" y="-136.2" font-family="Times,serif" font-size="14.00">Announcements and Notifications</text>
</g>
<!-- users -->
<g id="node1" class="node">
<title>users</title>
<polygon fill="#dbeafe" stroke="#334155" points="261,-196.8 207,-196.8 207,-160.8 261,-160.8 261,-196.8"/>
<text xml:space="preserve" text-anchor="middle" x="234" y="-176.1" font-family="Arial" font-size="9.00">users</text>
</g>
<!-- permissions -->
<g id="node2" class="node">
<title>permissions</title>
<polygon fill="#f8fafc" stroke="#334155" points="75.77,-120 16.23,-120 16.23,-84 75.77,-84 75.77,-120"/>
<text xml:space="preserve" text-anchor="middle" x="46" y="-99.3" font-family="Arial" font-size="9.00">permissions</text>
</g>
<!-- users&#45;&gt;permissions -->
<g id="edge1" class="edge">
<title>users&#45;&gt;permissions</title>
<path fill="none" stroke="#334155" d="M206.66,-185C154.52,-185 46,-185 46,-185 46,-185 46,-127.43 46,-127.43"/>
<polygon fill="#334155" stroke="#334155" points="47.93,-127.43 46,-121.93 44.08,-127.43 47.93,-127.43"/>
</g>
<!-- parent_student -->
<g id="node3" class="node">
<title>parent_student</title>
<polygon fill="#f8fafc" stroke="#334155" points="165.78,-120 94.22,-120 94.22,-84 165.78,-84 165.78,-120"/>
<text xml:space="preserve" text-anchor="middle" x="130" y="-99.3" font-family="Arial" font-size="9.00">parent_student</text>
</g>
<!-- users&#45;&gt;parent_student -->
<g id="edge2" class="edge">
<title>users&#45;&gt;parent_student</title>
<path fill="none" stroke="#334155" d="M206.68,-173C175.86,-173 130,-173 130,-173 130,-173 130,-127.3 130,-127.3"/>
<polygon fill="#334155" stroke="#334155" points="131.93,-127.3 130,-121.8 128.08,-127.3 131.93,-127.3"/>
</g>
<!-- saved_account_logins -->
<g id="node4" class="node">
<title>saved_account_logins</title>
<polygon fill="#f8fafc" stroke="#334155" points="284.29,-120 183.71,-120 183.71,-84 284.29,-84 284.29,-120"/>
<text xml:space="preserve" text-anchor="middle" x="234" y="-99.3" font-family="Arial" font-size="9.00">saved_account_logins</text>
</g>
<!-- users&#45;&gt;saved_account_logins -->
<g id="edge3" class="edge">
<title>users&#45;&gt;saved_account_logins</title>
<path fill="none" stroke="#334155" d="M220.5,-160.6C220.5,-160.6 220.5,-127.35 220.5,-127.35"/>
<polygon fill="#334155" stroke="#334155" points="222.43,-127.35 220.5,-121.85 218.58,-127.35 222.43,-127.35"/>
</g>
<!-- audit_logs -->
<g id="node5" class="node">
<title>audit_logs</title>
<polygon fill="#f8fafc" stroke="#334155" points="356,-120 302,-120 302,-84 356,-84 356,-120"/>
<text xml:space="preserve" text-anchor="middle" x="329" y="-99.3" font-family="Arial" font-size="9.00">audit_logs</text>
</g>
<!-- users&#45;&gt;audit_logs -->
<g id="edge4" class="edge">
<title>users&#45;&gt;audit_logs</title>
<path fill="none" stroke="#334155" d="M234,-160.32C234,-147.98 234,-134 234,-134 234,-134 323,-134 323,-134 323,-134 323,-127.26 323,-127.26"/>
<polygon fill="#334155" stroke="#334155" points="324.93,-127.26 323,-121.76 321.08,-127.26 324.93,-127.26"/>
</g>
<!-- announcements -->
<g id="node7" class="node">
<title>announcements</title>
<polygon fill="#ede9fe" stroke="#334155" points="735.78,-120 660.22,-120 660.22,-84 735.78,-84 735.78,-120"/>
<text xml:space="preserve" text-anchor="middle" x="698" y="-99.3" font-family="Arial" font-size="9.00">announcements</text>
</g>
<!-- users&#45;&gt;announcements -->
<g id="edge5" class="edge">
<title>users&#45;&gt;announcements</title>
<path fill="none" stroke="#334155" d="M247.5,-160.3C247.5,-153.31 247.5,-147 247.5,-147 247.5,-147 698,-147 698,-147 698,-147 698,-127.32 698,-127.32"/>
<polygon fill="#334155" stroke="#334155" points="699.93,-127.32 698,-121.82 696.08,-127.32 699.93,-127.32"/>
</g>
<!-- settings -->
<g id="node6" class="node">
<title>settings</title>
<polygon fill="#f8fafc" stroke="#334155" points="344,-196.8 290,-196.8 290,-160.8 344,-160.8 344,-196.8"/>
<text xml:space="preserve" text-anchor="middle" x="317" y="-176.1" font-family="Arial" font-size="9.00">settings</text>
</g>
<!-- announcement_attachments -->
<g id="node8" class="node">
<title>announcement_attachments</title>
<polygon fill="#f8fafc" stroke="#334155" points="505.55,-52 380.45,-52 380.45,-16 505.55,-16 505.55,-52"/>
<text xml:space="preserve" text-anchor="middle" x="443" y="-31.3" font-family="Arial" font-size="9.00">announcement_attachments</text>
</g>
<!-- announcements&#45;&gt;announcement_attachments -->
<g id="edge6" class="edge">
<title>announcements&#45;&gt;announcement_attachments</title>
<path fill="none" stroke="#334155" d="M659.82,-108C588.69,-108 443,-108 443,-108 443,-108 443,-59.31 443,-59.31"/>
<polygon fill="#334155" stroke="#334155" points="444.93,-59.31 443,-53.81 441.08,-59.31 444.93,-59.31"/>
</g>
<!-- announcement_reads -->
<g id="node9" class="node">
<title>announcement_reads</title>
<polygon fill="#f8fafc" stroke="#334155" points="622.29,-52 523.71,-52 523.71,-16 622.29,-16 622.29,-52"/>
<text xml:space="preserve" text-anchor="middle" x="573" y="-31.3" font-family="Arial" font-size="9.00">announcement_reads</text>
</g>
<!-- announcements&#45;&gt;announcement_reads -->
<g id="edge7" class="edge">
<title>announcements&#45;&gt;announcement_reads</title>
<path fill="none" stroke="#334155" d="M659.82,-96C623.06,-96 573,-96 573,-96 573,-96 573,-59.28 573,-59.28"/>
<polygon fill="#334155" stroke="#334155" points="574.93,-59.28 573,-53.78 571.08,-59.28 574.93,-59.28"/>
</g>
<!-- announcement_recipients -->
<g id="node10" class="node">
<title>announcement_recipients</title>
<polygon fill="#f8fafc" stroke="#334155" points="755.29,-52 640.71,-52 640.71,-16 755.29,-16 755.29,-52"/>
<text xml:space="preserve" text-anchor="middle" x="698" y="-31.3" font-family="Arial" font-size="9.00">announcement_recipients</text>
</g>
<!-- announcements&#45;&gt;announcement_recipients -->
<g id="edge8" class="edge">
<title>announcements&#45;&gt;announcement_recipients</title>
<path fill="none" stroke="#334155" d="M698,-83.78C698,-83.78 698,-59.29 698,-59.29"/>
<polygon fill="#334155" stroke="#334155" points="699.93,-59.29 698,-53.79 696.08,-59.29 699.93,-59.29"/>
</g>
<!-- announcement_event_responses -->
<g id="node11" class="node">
<title>announcement_event_responses</title>
<polygon fill="#f8fafc" stroke="#334155" points="918.31,-52 773.69,-52 773.69,-16 918.31,-16 918.31,-52"/>
<text xml:space="preserve" text-anchor="middle" x="846" y="-31.3" font-family="Arial" font-size="9.00">announcement_event_responses</text>
</g>
<!-- announcements&#45;&gt;announcement_event_responses -->
<g id="edge9" class="edge">
<title>announcements&#45;&gt;announcement_event_responses</title>
<path fill="none" stroke="#334155" d="M736.11,-93C779.97,-93 846,-93 846,-93 846,-93 846,-59.36 846,-59.36"/>
<polygon fill="#334155" stroke="#334155" points="847.93,-59.36 846,-53.86 844.08,-59.36 847.93,-59.36"/>
</g>
<!-- announcement_reminder_dispatches -->
<g id="node12" class="node">
<title>announcement_reminder_dispatches</title>
<polygon fill="#f8fafc" stroke="#334155" points="1095.81,-52 936.19,-52 936.19,-16 1095.81,-16 1095.81,-52"/>
<text xml:space="preserve" text-anchor="middle" x="1016" y="-31.3" font-family="Arial" font-size="9.00">announcement_reminder_dispatches</text>
</g>
<!-- announcements&#45;&gt;announcement_reminder_dispatches -->
<g id="edge10" class="edge">
<title>announcements&#45;&gt;announcement_reminder_dispatches</title>
<path fill="none" stroke="#334155" d="M736.04,-102C820.45,-102 1016,-102 1016,-102 1016,-102 1016,-59.24 1016,-59.24"/>
<polygon fill="#334155" stroke="#334155" points="1017.93,-59.24 1016,-53.74 1014.08,-59.24 1017.93,-59.24"/>
</g>
<!-- finance_due_reminder_dispatches -->
<g id="node13" class="node">
<title>finance_due_reminder_dispatches</title>
<polygon fill="#fef3c7" stroke="#334155" points="1262.56,-52 1113.44,-52 1113.44,-16 1262.56,-16 1262.56,-52"/>
<text xml:space="preserve" text-anchor="middle" x="1188" y="-31.3" font-family="Arial" font-size="9.00">finance_due_reminder_dispatches</text>
</g>
<!-- announcements&#45;&gt;finance_due_reminder_dispatches -->
<g id="edge11" class="edge">
<title>announcements&#45;&gt;finance_due_reminder_dispatches</title>
<path fill="none" stroke="#334155" d="M736.04,-111C851.17,-111 1188,-111 1188,-111 1188,-111 1188,-59.26 1188,-59.26"/>
<polygon fill="#334155" stroke="#334155" points="1189.93,-59.26 1188,-53.76 1186.08,-59.26 1189.93,-59.26"/>
</g>
</g>
</svg>
