<?xml version="1.0" encoding="UTF-8" standalone="no"?>
<!DOCTYPE svg PUBLIC "-//W3C//DTD SVG 1.1//EN"
 "http://www.w3.org/Graphics/SVG/1.1/DTD/svg11.dtd">
<!-- Generated by graphviz version 14.1.5 (20260411.2331)
 -->
<!-- Title: G Pages: 1 -->
<svg width="150pt" height="648pt"
 viewBox="0.00 0.00 150.00 648.00" xmlns="http://www.w3.org/2000/svg" xmlns:xlink="http://www.w3.org/1999/xlink">
<g id="graph0" class="graph" transform="scale(1 1) rotate(0) translate(18 630)">
<title>G</title>
<polygon fill="white" stroke="none" points="-18,18 -18,-630 132.46,-630 132.46,18 -18,18"/>
<!-- root -->
<g id="node1" class="node">
<title>root</title>
<polygon fill="#dbeafe" stroke="#334155" points="112.79,-612 1.67,-612 1.67,-576 112.79,-576 112.79,-612"/>
<text xml:space="preserve" text-anchor="middle" x="57.23" y="-591" font-family="Arial" font-size="10.00">Super Admin Account</text>
</g>
<!-- governance -->
<g id="node2" class="node">
<title>governance</title>
<polygon fill="#dcfce7" stroke="#334155" points="109.73,-540 4.73,-540 4.73,-504 109.73,-504 109.73,-540"/>
<text xml:space="preserve" text-anchor="middle" x="57.23" y="-519" font-family="Arial" font-size="10.00">System Governance</text>
</g>
<!-- root&#45;&gt;governance -->
<g id="edge1" class="edge">
<title>root&#45;&gt;governance</title>
<path fill="none" stroke="#334155" d="M57.23,-575.83C57.23,-575.83 57.23,-548.43 57.23,-548.43"/>
<polygon fill="#334155" stroke="#334155" points="59.51,-548.43 57.23,-541.93 54.96,-548.43 59.51,-548.43"/>
</g>
<!-- users -->
<g id="node4" class="node">
<title>users</title>
<polygon fill="#f8fafc" stroke="#334155" points="96.11,-468 18.35,-468 18.35,-432 96.11,-432 96.11,-468"/>
<text xml:space="preserve" text-anchor="middle" x="57.23" y="-447" font-family="Arial" font-size="10.00">User Manager</text>
</g>
<!-- governance&#45;&gt;users -->
<g id="edge2" class="edge">
<title>governance&#45;&gt;users</title>
<path fill="none" stroke="#334155" d="M57.23,-503.83C57.23,-503.83 57.23,-476.43 57.23,-476.43"/>
<polygon fill="#334155" stroke="#334155" points="59.51,-476.43 57.23,-469.93 54.96,-476.43 59.51,-476.43"/>
</g>
<!-- communication -->
<g id="node3" class="node">
<title>communication</title>
<polygon fill="#dcfce7" stroke="#334155" points="99.17,-180 15.3,-180 15.3,-144 99.17,-144 99.17,-180"/>
<text xml:space="preserve" text-anchor="middle" x="57.23" y="-159" font-family="Arial" font-size="10.00">Communication</text>
</g>
<!-- announcements -->
<g id="node8" class="node">
<title>announcements</title>
<polygon fill="#f8fafc" stroke="#334155" points="100.57,-108 13.9,-108 13.9,-72 100.57,-72 100.57,-108"/>
<text xml:space="preserve" text-anchor="middle" x="57.23" y="-87" font-family="Arial" font-size="10.00">Announcements</text>
</g>
<!-- communication&#45;&gt;announcements -->
<g id="edge7" class="edge">
<title>communication&#45;&gt;announcements</title>
<path fill="none" stroke="#334155" d="M57.23,-143.83C57.23,-143.83 57.23,-116.43 57.23,-116.43"/>
<polygon fill="#334155" stroke="#334155" points="59.51,-116.43 57.23,-109.93 54.96,-116.43 59.51,-116.43"/>
</g>
<!-- permissions -->
<g id="node5" class="node">
<title>permissions</title>
<polygon fill="#f8fafc" stroke="#334155" points="91.66,-396 22.8,-396 22.8,-360 91.66,-360 91.66,-396"/>
<text xml:space="preserve" text-anchor="middle" x="57.23" y="-375" font-family="Arial" font-size="10.00">Permissions</text>
</g>
<!-- users&#45;&gt;permissions -->
<g id="edge3" class="edge">
<title>users&#45;&gt;permissions</title>
<path fill="none" stroke="#334155" d="M57.23,-431.83C57.23,-431.83 57.23,-404.43 57.23,-404.43"/>
<polygon fill="#334155" stroke="#334155" points="59.51,-404.43 57.23,-397.93 54.96,-404.43 59.51,-404.43"/>
</g>
<!-- audit -->
<g id="node6" class="node">
<title>audit</title>
<polygon fill="#f8fafc" stroke="#334155" points="88.06,-324 26.4,-324 26.4,-288 88.06,-288 88.06,-324"/>
<text xml:space="preserve" text-anchor="middle" x="57.23" y="-303" font-family="Arial" font-size="10.00">Audit Logs</text>
</g>
<!-- permissions&#45;&gt;audit -->
<g id="edge4" class="edge">
<title>permissions&#45;&gt;audit</title>
<path fill="none" stroke="#334155" d="M57.23,-359.83C57.23,-359.83 57.23,-332.43 57.23,-332.43"/>
<polygon fill="#334155" stroke="#334155" points="59.51,-332.43 57.23,-325.93 54.96,-332.43 59.51,-332.43"/>
</g>
<!-- settings -->
<g id="node7" class="node">
<title>settings</title>
<polygon fill="#f8fafc" stroke="#334155" points="100.56,-252 13.91,-252 13.91,-216 100.56,-216 100.56,-252"/>
<text xml:space="preserve" text-anchor="middle" x="57.23" y="-231" font-family="Arial" font-size="10.00">System Settings</text>
</g>
<!-- audit&#45;&gt;settings -->
<g id="edge5" class="edge">
<title>audit&#45;&gt;settings</title>
<path fill="none" stroke="#334155" d="M57.23,-287.83C57.23,-287.83 57.23,-260.43 57.23,-260.43"/>
<polygon fill="#334155" stroke="#334155" points="59.51,-260.43 57.23,-253.93 54.96,-260.43 59.51,-260.43"/>
</g>
<!-- settings&#45;&gt;communication -->
<g id="edge6" class="edge">
<title>settings&#45;&gt;communication</title>
<path fill="none" stroke="#334155" d="M57.23,-215.83C57.23,-215.83 57.23,-188.43 57.23,-188.43"/>
<polygon fill="#334155" stroke="#334155" points="59.51,-188.43 57.23,-181.93 54.96,-188.43 59.51,-188.43"/>
</g>
<!-- reports -->
<g id="node9" class="node">
<title>reports</title>
<polygon fill="#f8fafc" stroke="#334155" points="114.46,-36 0,-36 0,0 114.46,0 114.46,-36"/>
<text xml:space="preserve" text-anchor="middle" x="57.23" y="-15" font-family="Arial" font-size="10.00">Announcement Report</text>
</g>
<!-- announcements&#45;&gt;reports -->
<g id="edge8" class="edge">
<title>announcements&#45;&gt;reports</title>
<path fill="none" stroke="#334155" d="M57.23,-71.83C57.23,-71.83 57.23,-44.43 57.23,-44.43"/>
<polygon fill="#334155" stroke="#334155" points="59.51,-44.43 57.23,-37.93 54.96,-44.43 59.51,-44.43"/>
</g>
</g>
</svg>
