<?xml version="1.0" encoding="UTF-8" standalone="no"?>
<!DOCTYPE svg PUBLIC "-//W3C//DTD SVG 1.1//EN"
 "http://www.w3.org/Graphics/SVG/1.1/DTD/svg11.dtd">
<!-- Generated by graphviz version 14.1.5 (20260411.2331)
 -->
<!-- Title: G Pages: 1 -->
<svg width="146pt" height="648pt"
 viewBox="0.00 0.00 146.00 648.00" xmlns="http://www.w3.org/2000/svg" xmlns:xlink="http://www.w3.org/1999/xlink">
<g id="graph0" class="graph" transform="scale(1 1) rotate(0) translate(18 630)">
<title>G</title>
<polygon fill="white" stroke="none" points="-18,18 -18,-630 128,-630 128,18 -18,18"/>
<!-- root -->
<g id="node1" class="node">
<title>root</title>
<polygon fill="#dbeafe" stroke="#334155" points="95.83,-612 14.17,-612 14.17,-576 95.83,-576 95.83,-612"/>
<text xml:space="preserve" text-anchor="middle" x="55" y="-591" font-family="Arial" font-size="10.00">Admin Account</text>
</g>
<!-- setup -->
<g id="node2" class="node">
<title>setup</title>
<polygon fill="#dcfce7" stroke="#334155" points="98.61,-540 11.39,-540 11.39,-504 98.61,-504 98.61,-540"/>
<text xml:space="preserve" text-anchor="middle" x="55" y="-519" font-family="Arial" font-size="10.00">Academic Setup</text>
</g>
<!-- root&#45;&gt;setup -->
<g id="edge1" class="edge">
<title>root&#45;&gt;setup</title>
<path fill="none" stroke="#334155" d="M55,-575.83C55,-575.83 55,-548.43 55,-548.43"/>
<polygon fill="#334155" stroke="#334155" points="57.28,-548.43 55,-541.93 52.73,-548.43 57.28,-548.43"/>
</g>
<!-- controls -->
<g id="node4" class="node">
<title>controls</title>
<polygon fill="#f8fafc" stroke="#334155" points="104.16,-468 5.84,-468 5.84,-432 104.16,-432 104.16,-468"/>
<text xml:space="preserve" text-anchor="middle" x="55" y="-447" font-family="Arial" font-size="10.00">Academic Controls</text>
</g>
<!-- setup&#45;&gt;controls -->
<g id="edge2" class="edge">
<title>setup&#45;&gt;controls</title>
<path fill="none" stroke="#334155" d="M55,-503.83C55,-503.83 55,-476.43 55,-476.43"/>
<polygon fill="#334155" stroke="#334155" points="57.28,-476.43 55,-469.93 52.73,-476.43 57.28,-476.43"/>
</g>
<!-- operations -->
<g id="node3" class="node">
<title>operations</title>
<polygon fill="#dcfce7" stroke="#334155" points="110,-252 0,-252 0,-216 110,-216 110,-252"/>
<text xml:space="preserve" text-anchor="middle" x="55" y="-231" font-family="Arial" font-size="10.00">Academic Operations</text>
</g>
<!-- schedules -->
<g id="node7" class="node">
<title>schedules</title>
<polygon fill="#f8fafc" stroke="#334155" points="100,-180 10,-180 10,-144 100,-144 100,-180"/>
<text xml:space="preserve" text-anchor="middle" x="55" y="-159" font-family="Arial" font-size="10.00">Schedule Builder</text>
</g>
<!-- operations&#45;&gt;schedules -->
<g id="edge6" class="edge">
<title>operations&#45;&gt;schedules</title>
<path fill="none" stroke="#334155" d="M55,-215.83C55,-215.83 55,-188.43 55,-188.43"/>
<polygon fill="#334155" stroke="#334155" points="57.28,-188.43 55,-181.93 52.73,-188.43 57.28,-188.43"/>
</g>
<!-- curriculum -->
<g id="node5" class="node">
<title>curriculum</title>
<polygon fill="#f8fafc" stroke="#334155" points="107.49,-396 2.51,-396 2.51,-360 107.49,-360 107.49,-396"/>
<text xml:space="preserve" text-anchor="middle" x="55" y="-375" font-family="Arial" font-size="10.00">Curriculum Manager</text>
</g>
<!-- controls&#45;&gt;curriculum -->
<g id="edge3" class="edge">
<title>controls&#45;&gt;curriculum</title>
<path fill="none" stroke="#334155" d="M55,-431.83C55,-431.83 55,-404.43 55,-404.43"/>
<polygon fill="#334155" stroke="#334155" points="57.28,-404.43 55,-397.93 52.73,-404.43 57.28,-404.43"/>
</g>
<!-- sections -->
<g id="node6" class="node">
<title>sections</title>
<polygon fill="#f8fafc" stroke="#334155" points="100,-324 10,-324 10,-288 100,-288 100,-324"/>
<text xml:space="preserve" text-anchor="middle" x="55" y="-303" font-family="Arial" font-size="10.00">Section Manager</text>
</g>
<!-- curriculum&#45;&gt;sections -->
<g id="edge4" class="edge">
<title>curriculum&#45;&gt;sections</title>
<path fill="none" stroke="#334155" d="M55,-359.83C55,-359.83 55,-332.43 55,-332.43"/>
<polygon fill="#334155" stroke="#334155" points="57.28,-332.43 55,-325.93 52.73,-332.43 57.28,-332.43"/>
</g>
<!-- sections&#45;&gt;operations -->
<g id="edge5" class="edge">
<title>sections&#45;&gt;operations</title>
<path fill="none" stroke="#334155" d="M55,-287.83C55,-287.83 55,-260.43 55,-260.43"/>
<polygon fill="#334155" stroke="#334155" points="57.28,-260.43 55,-253.93 52.73,-260.43 57.28,-260.43"/>
</g>
<!-- class_lists -->
<g id="node8" class="node">
<title>class_lists</title>
<polygon fill="#f8fafc" stroke="#334155" points="86.37,-108 23.63,-108 23.63,-72 86.37,-72 86.37,-108"/>
<text xml:space="preserve" text-anchor="middle" x="55" y="-87" font-family="Arial" font-size="10.00">Class Lists</text>
</g>
<!-- schedules&#45;&gt;class_lists -->
<g id="edge7" class="edge">
<title>schedules&#45;&gt;class_lists</title>
<path fill="none" stroke="#334155" d="M55,-143.83C55,-143.83 55,-116.43 55,-116.43"/>
<polygon fill="#334155" stroke="#334155" points="57.28,-116.43 55,-109.93 52.73,-116.43 57.28,-116.43"/>
</g>
<!-- verification -->
<g id="node9" class="node">
<title>verification</title>
<polygon fill="#f8fafc" stroke="#334155" points="102.22,-36 7.78,-36 7.78,0 102.22,0 102.22,-36"/>
<text xml:space="preserve" text-anchor="middle" x="55" y="-15" font-family="Arial" font-size="10.00">Grade Verification</text>
</g>
<!-- class_lists&#45;&gt;verification -->
<g id="edge8" class="edge">
<title>class_lists&#45;&gt;verification</title>
<path fill="none" stroke="#334155" d="M55,-71.83C55,-71.83 55,-44.43 55,-44.43"/>
<polygon fill="#334155" stroke="#334155" points="57.28,-44.43 55,-37.93 52.73,-44.43 57.28,-44.43"/>
</g>
</g>
</svg>
