<?xml version="1.0" encoding="UTF-8" standalone="no"?>
<!DOCTYPE svg PUBLIC "-//W3C//DTD SVG 1.1//EN"
 "http://www.w3.org/Graphics/SVG/1.1/DTD/svg11.dtd">
<!-- Generated by graphviz version 14.1.5 (20260411.2331)
 -->
<!-- Title: G Pages: 1 -->
<svg width="149pt" height="864pt"
 viewBox="0.00 0.00 149.00 864.00" xmlns="http://www.w3.org/2000/svg" xmlns:xlink="http://www.w3.org/1999/xlink">
<g id="graph0" class="graph" transform="scale(1 1) rotate(0) translate(18 846)">
<title>G</title>
<polygon fill="white" stroke="none" points="-18,18 -18,-846 130.79,-846 130.79,18 -18,18"/>
<!-- root -->
<g id="node1" class="node">
<title>root</title>
<polygon fill="#dbeafe" stroke="#334155" points="103.33,-828 9.46,-828 9.46,-792 103.33,-792 103.33,-828"/>
<text xml:space="preserve" text-anchor="middle" x="56.39" y="-807" font-family="Arial" font-size="10.00">Registrar Account</text>
</g>
<!-- records -->
<g id="node2" class="node">
<title>records</title>
<polygon fill="#dcfce7" stroke="#334155" points="100.84,-756 11.95,-756 11.95,-720 100.84,-720 100.84,-756"/>
<text xml:space="preserve" text-anchor="middle" x="56.39" y="-735" font-family="Arial" font-size="10.00">Learner Records</text>
</g>
<!-- root&#45;&gt;records -->
<g id="edge1" class="edge">
<title>root&#45;&gt;records</title>
<path fill="none" stroke="#334155" d="M56.39,-791.83C56.39,-791.83 56.39,-764.43 56.39,-764.43"/>
<polygon fill="#334155" stroke="#334155" points="58.67,-764.43 56.39,-757.93 54.12,-764.43 58.67,-764.43"/>
</g>
<!-- directory -->
<g id="node5" class="node">
<title>directory</title>
<polygon fill="#f8fafc" stroke="#334155" points="102.22,-684 10.57,-684 10.57,-648 102.22,-648 102.22,-684"/>
<text xml:space="preserve" text-anchor="middle" x="56.39" y="-663" font-family="Arial" font-size="10.00">Student Directory</text>
</g>
<!-- records&#45;&gt;directory -->
<g id="edge2" class="edge">
<title>records&#45;&gt;directory</title>
<path fill="none" stroke="#334155" d="M56.39,-719.83C56.39,-719.83 56.39,-692.43 56.39,-692.43"/>
<polygon fill="#334155" stroke="#334155" points="58.67,-692.43 56.39,-685.93 54.12,-692.43 58.67,-692.43"/>
</g>
<!-- enrollment -->
<g id="node3" class="node">
<title>enrollment</title>
<polygon fill="#dcfce7" stroke="#334155" points="112.79,-468 0,-468 0,-432 112.79,-432 112.79,-468"/>
<text xml:space="preserve" text-anchor="middle" x="56.39" y="-447" font-family="Arial" font-size="10.00">Enrollment and Status</text>
</g>
<!-- queue -->
<g id="node8" class="node">
<title>queue</title>
<polygon fill="#f8fafc" stroke="#334155" points="103.89,-396 8.89,-396 8.89,-360 103.89,-360 103.89,-396"/>
<text xml:space="preserve" text-anchor="middle" x="56.39" y="-375" font-family="Arial" font-size="10.00">Enrollment Queue</text>
</g>
<!-- enrollment&#45;&gt;queue -->
<g id="edge6" class="edge">
<title>enrollment&#45;&gt;queue</title>
<path fill="none" stroke="#334155" d="M56.39,-431.83C56.39,-431.83 56.39,-404.43 56.39,-404.43"/>
<polygon fill="#334155" stroke="#334155" points="58.67,-404.43 56.39,-397.93 54.12,-404.43 58.67,-404.43"/>
</g>
<!-- history -->
<g id="node4" class="node">
<title>history</title>
<polygon fill="#dcfce7" stroke="#334155" points="102.49,-180 10.3,-180 10.3,-144 102.49,-144 102.49,-180"/>
<text xml:space="preserve" text-anchor="middle" x="56.39" y="-159" font-family="Arial" font-size="10.00">Academic History</text>
</g>
<!-- permanent -->
<g id="node11" class="node">
<title>permanent</title>
<polygon fill="#f8fafc" stroke="#334155" points="108.06,-108 4.73,-108 4.73,-72 108.06,-72 108.06,-108"/>
<text xml:space="preserve" text-anchor="middle" x="56.39" y="-87" font-family="Arial" font-size="10.00">Permanent Records</text>
</g>
<!-- history&#45;&gt;permanent -->
<g id="edge10" class="edge">
<title>history&#45;&gt;permanent</title>
<path fill="none" stroke="#334155" d="M56.39,-143.83C56.39,-143.83 56.39,-116.43 56.39,-116.43"/>
<polygon fill="#334155" stroke="#334155" points="58.67,-116.43 56.39,-109.93 54.12,-116.43 58.67,-116.43"/>
</g>
<!-- sf1 -->
<g id="node6" class="node">
<title>sf1</title>
<polygon fill="#f8fafc" stroke="#334155" points="90,-612 22.79,-612 22.79,-576 90,-576 90,-612"/>
<text xml:space="preserve" text-anchor="middle" x="56.39" y="-591" font-family="Arial" font-size="10.00">SF1 Upload</text>
</g>
<!-- directory&#45;&gt;sf1 -->
<g id="edge3" class="edge">
<title>directory&#45;&gt;sf1</title>
<path fill="none" stroke="#334155" d="M56.39,-647.83C56.39,-647.83 56.39,-620.43 56.39,-620.43"/>
<polygon fill="#334155" stroke="#334155" points="58.67,-620.43 56.39,-613.93 54.12,-620.43 58.67,-620.43"/>
</g>
<!-- import -->
<g id="node7" class="node">
<title>import</title>
<polygon fill="#f8fafc" stroke="#334155" points="89.71,-540 23.07,-540 23.07,-504 89.71,-504 89.71,-540"/>
<text xml:space="preserve" text-anchor="middle" x="56.39" y="-519" font-family="Arial" font-size="10.00">Data Import</text>
</g>
<!-- sf1&#45;&gt;import -->
<g id="edge4" class="edge">
<title>sf1&#45;&gt;import</title>
<path fill="none" stroke="#334155" d="M56.39,-575.83C56.39,-575.83 56.39,-548.43 56.39,-548.43"/>
<polygon fill="#334155" stroke="#334155" points="58.67,-548.43 56.39,-541.93 54.12,-548.43 58.67,-548.43"/>
</g>
<!-- import&#45;&gt;enrollment -->
<g id="edge5" class="edge">
<title>import&#45;&gt;enrollment</title>
<path fill="none" stroke="#334155" d="M56.39,-503.83C56.39,-503.83 56.39,-476.43 56.39,-476.43"/>
<polygon fill="#334155" stroke="#334155" points="58.67,-476.43 56.39,-469.93 54.12,-476.43 58.67,-476.43"/>
</g>
<!-- promotion -->
<g id="node9" class="node">
<title>promotion</title>
<polygon fill="#f8fafc" stroke="#334155" points="100.56,-324 12.23,-324 12.23,-288 100.56,-288 100.56,-324"/>
<text xml:space="preserve" text-anchor="middle" x="56.39" y="-303" font-family="Arial" font-size="10.00">Batch Promotion</text>
</g>
<!-- queue&#45;&gt;promotion -->
<g id="edge7" class="edge">
<title>queue&#45;&gt;promotion</title>
<path fill="none" stroke="#334155" d="M56.39,-359.83C56.39,-359.83 56.39,-332.43 56.39,-332.43"/>
<polygon fill="#334155" stroke="#334155" points="58.67,-332.43 56.39,-325.93 54.12,-332.43 58.67,-332.43"/>
</g>
<!-- departure -->
<g id="node10" class="node">
<title>departure</title>
<polygon fill="#f8fafc" stroke="#334155" points="104.45,-252 8.33,-252 8.33,-216 104.45,-216 104.45,-252"/>
<text xml:space="preserve" text-anchor="middle" x="56.39" y="-231" font-family="Arial" font-size="10.00">Student Departure</text>
</g>
<!-- promotion&#45;&gt;departure -->
<g id="edge8" class="edge">
<title>promotion&#45;&gt;departure</title>
<path fill="none" stroke="#334155" d="M56.39,-287.83C56.39,-287.83 56.39,-260.43 56.39,-260.43"/>
<polygon fill="#334155" stroke="#334155" points="58.67,-260.43 56.39,-253.93 54.12,-260.43 58.67,-260.43"/>
</g>
<!-- departure&#45;&gt;history -->
<g id="edge9" class="edge">
<title>departure&#45;&gt;history</title>
<path fill="none" stroke="#334155" d="M56.39,-215.83C56.39,-215.83 56.39,-188.43 56.39,-188.43"/>
<polygon fill="#334155" stroke="#334155" points="58.67,-188.43 56.39,-181.93 54.12,-188.43 58.67,-188.43"/>
</g>
<!-- remedial -->
<g id="node12" class="node">
<title>remedial</title>
<polygon fill="#f8fafc" stroke="#334155" points="97.77,-36 15.01,-36 15.01,0 97.77,0 97.77,-36"/>
<text xml:space="preserve" text-anchor="middle" x="56.39" y="-15" font-family="Arial" font-size="10.00">Remedial Entry</text>
</g>
<!-- permanent&#45;&gt;remedial -->
<g id="edge11" class="edge">
<title>permanent&#45;&gt;remedial</title>
<path fill="none" stroke="#334155" d="M56.39,-71.83C56.39,-71.83 56.39,-44.43 56.39,-44.43"/>
<polygon fill="#334155" stroke="#334155" points="58.67,-44.43 56.39,-37.93 54.12,-44.43 58.67,-44.43"/>
</g>
</g>
</svg>
