<?xml version="1.0" encoding="UTF-8" standalone="no"?>
<!DOCTYPE svg PUBLIC "-//W3C//DTD SVG 1.1//EN"
 "http://www.w3.org/Graphics/SVG/1.1/DTD/svg11.dtd">
<!-- Generated by graphviz version 14.1.5 (20260411.2331)
 -->
<!-- Title: G Pages: 1 -->
<svg width="155pt" height="936pt"
 viewBox="0.00 0.00 155.00 936.00" xmlns="http://www.w3.org/2000/svg" xmlns:xlink="http://www.w3.org/1999/xlink">
<g id="graph0" class="graph" transform="scale(1 1) rotate(0) translate(18 918)">
<title>G</title>
<polygon fill="white" stroke="none" points="-18,18 -18,-918 137.46,-918 137.46,18 -18,18"/>
<!-- root -->
<g id="node1" class="node">
<title>root</title>
<polygon fill="#dbeafe" stroke="#334155" points="104.17,-900 15.29,-900 15.29,-864 104.17,-864 104.17,-900"/>
<text xml:space="preserve" text-anchor="middle" x="59.73" y="-879" font-family="Arial" font-size="10.00">Finance Account</text>
</g>
<!-- collection -->
<g id="node2" class="node">
<title>collection</title>
<polygon fill="#dcfce7" stroke="#334155" points="119.46,-828 0,-828 0,-792 119.46,-792 119.46,-828"/>
<text xml:space="preserve" text-anchor="middle" x="59.73" y="-807" font-family="Arial" font-size="10.00">Collection Management</text>
</g>
<!-- root&#45;&gt;collection -->
<g id="edge1" class="edge">
<title>root&#45;&gt;collection</title>
<path fill="none" stroke="#334155" d="M59.73,-863.83C59.73,-863.83 59.73,-836.43 59.73,-836.43"/>
<polygon fill="#334155" stroke="#334155" points="62,-836.43 59.73,-829.93 57.45,-836.43 62,-836.43"/>
</g>
<!-- cashier -->
<g id="node5" class="node">
<title>cashier</title>
<polygon fill="#f8fafc" stroke="#334155" points="98.34,-756 21.12,-756 21.12,-720 98.34,-720 98.34,-756"/>
<text xml:space="preserve" text-anchor="middle" x="59.73" y="-735" font-family="Arial" font-size="10.00">Cashier Panel</text>
</g>
<!-- collection&#45;&gt;cashier -->
<g id="edge2" class="edge">
<title>collection&#45;&gt;cashier</title>
<path fill="none" stroke="#334155" d="M59.73,-791.83C59.73,-791.83 59.73,-764.43 59.73,-764.43"/>
<polygon fill="#334155" stroke="#334155" points="62,-764.43 59.73,-757.93 57.45,-764.43 62,-764.43"/>
</g>
<!-- setup -->
<g id="node3" class="node">
<title>setup</title>
<polygon fill="#dcfce7" stroke="#334155" points="94.72,-468 24.73,-468 24.73,-432 94.72,-432 94.72,-468"/>
<text xml:space="preserve" text-anchor="middle" x="59.73" y="-447" font-family="Arial" font-size="10.00">Billing Setup</text>
</g>
<!-- fees -->
<g id="node9" class="node">
<title>fees</title>
<polygon fill="#f8fafc" stroke="#334155" points="97.22,-396 22.24,-396 22.24,-360 97.22,-360 97.22,-396"/>
<text xml:space="preserve" text-anchor="middle" x="59.73" y="-375" font-family="Arial" font-size="10.00">Fee Structure</text>
</g>
<!-- setup&#45;&gt;fees -->
<g id="edge7" class="edge">
<title>setup&#45;&gt;fees</title>
<path fill="none" stroke="#334155" d="M59.73,-431.83C59.73,-431.83 59.73,-404.43 59.73,-404.43"/>
<polygon fill="#334155" stroke="#334155" points="62,-404.43 59.73,-397.93 57.45,-404.43 62,-404.43"/>
</g>
<!-- reminder -->
<g id="node4" class="node">
<title>reminder</title>
<polygon fill="#dcfce7" stroke="#334155" points="119.18,-108 0.28,-108 0.28,-72 119.18,-72 119.18,-108"/>
<text xml:space="preserve" text-anchor="middle" x="59.73" y="-87" font-family="Arial" font-size="10.00">Reminder Management</text>
</g>
<!-- due_settings -->
<g id="node13" class="node">
<title>due_settings</title>
<polygon fill="#f8fafc" stroke="#334155" points="118.62,-36 0.84,-36 0.84,0 118.62,0 118.62,-36"/>
<text xml:space="preserve" text-anchor="middle" x="59.73" y="-15" font-family="Arial" font-size="10.00">Due Reminder Settings</text>
</g>
<!-- reminder&#45;&gt;due_settings -->
<g id="edge12" class="edge">
<title>reminder&#45;&gt;due_settings</title>
<path fill="none" stroke="#334155" d="M59.73,-71.83C59.73,-71.83 59.73,-44.43 59.73,-44.43"/>
<polygon fill="#334155" stroke="#334155" points="62,-44.43 59.73,-37.93 57.45,-44.43 62,-44.43"/>
</g>
<!-- ledgers -->
<g id="node6" class="node">
<title>ledgers</title>
<polygon fill="#f8fafc" stroke="#334155" points="103.62,-684 15.83,-684 15.83,-648 103.62,-648 103.62,-684"/>
<text xml:space="preserve" text-anchor="middle" x="59.73" y="-663" font-family="Arial" font-size="10.00">Student Ledgers</text>
</g>
<!-- cashier&#45;&gt;ledgers -->
<g id="edge3" class="edge">
<title>cashier&#45;&gt;ledgers</title>
<path fill="none" stroke="#334155" d="M59.73,-719.83C59.73,-719.83 59.73,-692.43 59.73,-692.43"/>
<polygon fill="#334155" stroke="#334155" points="62,-692.43 59.73,-685.93 57.45,-692.43 62,-692.43"/>
</g>
<!-- transactions -->
<g id="node7" class="node">
<title>transactions</title>
<polygon fill="#f8fafc" stroke="#334155" points="110,-612 9.46,-612 9.46,-576 110,-576 110,-612"/>
<text xml:space="preserve" text-anchor="middle" x="59.73" y="-591" font-family="Arial" font-size="10.00">Transaction History</text>
</g>
<!-- ledgers&#45;&gt;transactions -->
<g id="edge4" class="edge">
<title>ledgers&#45;&gt;transactions</title>
<path fill="none" stroke="#334155" d="M59.73,-647.83C59.73,-647.83 59.73,-620.43 59.73,-620.43"/>
<polygon fill="#334155" stroke="#334155" points="62,-620.43 59.73,-613.93 57.45,-620.43 62,-620.43"/>
</g>
<!-- reports -->
<g id="node8" class="node">
<title>reports</title>
<polygon fill="#f8fafc" stroke="#334155" points="96.94,-540 22.52,-540 22.52,-504 96.94,-504 96.94,-540"/>
<text xml:space="preserve" text-anchor="middle" x="59.73" y="-519" font-family="Arial" font-size="10.00">Daily Reports</text>
</g>
<!-- transactions&#45;&gt;reports -->
<g id="edge5" class="edge">
<title>transactions&#45;&gt;reports</title>
<path fill="none" stroke="#334155" d="M59.73,-575.83C59.73,-575.83 59.73,-548.43 59.73,-548.43"/>
<polygon fill="#334155" stroke="#334155" points="62,-548.43 59.73,-541.93 57.45,-548.43 62,-548.43"/>
</g>
<!-- reports&#45;&gt;setup -->
<g id="edge6" class="edge">
<title>reports&#45;&gt;setup</title>
<path fill="none" stroke="#334155" d="M59.73,-503.83C59.73,-503.83 59.73,-476.43 59.73,-476.43"/>
<polygon fill="#334155" stroke="#334155" points="62,-476.43 59.73,-469.93 57.45,-476.43 62,-476.43"/>
</g>
<!-- discounts -->
<g id="node10" class="node">
<title>discounts</title>
<polygon fill="#f8fafc" stroke="#334155" points="107.51,-324 11.95,-324 11.95,-288 107.51,-288 107.51,-324"/>
<text xml:space="preserve" text-anchor="middle" x="59.73" y="-303" font-family="Arial" font-size="10.00">Discount Manager</text>
</g>
<!-- fees&#45;&gt;discounts -->
<g id="edge8" class="edge">
<title>fees&#45;&gt;discounts</title>
<path fill="none" stroke="#334155" d="M59.73,-359.83C59.73,-359.83 59.73,-332.43 59.73,-332.43"/>
<polygon fill="#334155" stroke="#334155" points="62,-332.43 59.73,-325.93 57.45,-332.43 62,-332.43"/>
</g>
<!-- inventory -->
<g id="node11" class="node">
<title>inventory</title>
<polygon fill="#f8fafc" stroke="#334155" points="106.12,-252 13.34,-252 13.34,-216 106.12,-216 106.12,-252"/>
<text xml:space="preserve" text-anchor="middle" x="59.73" y="-231" font-family="Arial" font-size="10.00">Product Inventory</text>
</g>
<!-- discounts&#45;&gt;inventory -->
<g id="edge9" class="edge">
<title>discounts&#45;&gt;inventory</title>
<path fill="none" stroke="#334155" d="M59.73,-287.83C59.73,-287.83 59.73,-260.43 59.73,-260.43"/>
<polygon fill="#334155" stroke="#334155" points="62,-260.43 59.73,-253.93 57.45,-260.43 62,-260.43"/>
</g>
<!-- import -->
<g id="node12" class="node">
<title>import</title>
<polygon fill="#f8fafc" stroke="#334155" points="93.05,-180 26.41,-180 26.41,-144 93.05,-144 93.05,-180"/>
<text xml:space="preserve" text-anchor="middle" x="59.73" y="-159" font-family="Arial" font-size="10.00">Data Import</text>
</g>
<!-- inventory&#45;&gt;import -->
<g id="edge10" class="edge">
<title>inventory&#45;&gt;import</title>
<path fill="none" stroke="#334155" d="M59.73,-215.83C59.73,-215.83 59.73,-188.43 59.73,-188.43"/>
<polygon fill="#334155" stroke="#334155" points="62,-188.43 59.73,-181.93 57.45,-188.43 62,-188.43"/>
</g>
<!-- import&#45;&gt;reminder -->
<g id="edge11" class="edge">
<title>import&#45;&gt;reminder</title>
<path fill="none" stroke="#334155" d="M59.73,-143.83C59.73,-143.83 59.73,-116.43 59.73,-116.43"/>
<polygon fill="#334155" stroke="#334155" points="62,-116.43 59.73,-109.93 57.45,-116.43 62,-116.43"/>
</g>
</g>
</svg>
