<?xml version="1.0" encoding="UTF-8" standalone="no"?>
<!DOCTYPE svg PUBLIC "-//W3C//DTD SVG 1.1//EN"
 "http://www.w3.org/Graphics/SVG/1.1/DTD/svg11.dtd">
<!-- Generated by graphviz version 14.1.5 (20260411.2331)
 -->
<!-- Title: G Pages: 1 -->
<svg width="147pt" height="576pt"
 viewBox="0.00 0.00 147.00 576.00" xmlns="http://www.w3.org/2000/svg" xmlns:xlink="http://www.w3.org/1999/xlink">
<g id="graph0" class="graph" transform="scale(1 1) rotate(0) translate(18 558)">
<title>G</title>
<polygon fill="white" stroke="none" points="-18,18 -18,-558 128.56,-558 128.56,18 -18,18"/>
<!-- root -->
<g id="node1" class="node">
<title>root</title>
<polygon fill="#dbeafe" stroke="#334155" points="100.28,-540 10.28,-540 10.28,-504 100.28,-504 100.28,-540"/>
<text xml:space="preserve" text-anchor="middle" x="55.28" y="-519" font-family="Arial" font-size="10.00">Teacher Account</text>
</g>
<!-- class_work -->
<g id="node2" class="node">
<title>class_work</title>
<polygon fill="#dcfce7" stroke="#334155" points="88.04,-468 22.52,-468 22.52,-432 88.04,-432 88.04,-468"/>
<text xml:space="preserve" text-anchor="middle" x="55.28" y="-447" font-family="Arial" font-size="10.00">Class Work</text>
</g>
<!-- root&#45;&gt;class_work -->
<g id="edge1" class="edge">
<title>root&#45;&gt;class_work</title>
<path fill="none" stroke="#334155" d="M55.28,-503.83C55.28,-503.83 55.28,-476.43 55.28,-476.43"/>
<polygon fill="#334155" stroke="#334155" points="57.56,-476.43 55.28,-469.93 53.01,-476.43 57.56,-476.43"/>
</g>
<!-- schedule -->
<g id="node4" class="node">
<title>schedule</title>
<polygon fill="#f8fafc" stroke="#334155" points="83.33,-396 27.23,-396 27.23,-360 83.33,-360 83.33,-396"/>
<text xml:space="preserve" text-anchor="middle" x="55.28" y="-375" font-family="Arial" font-size="10.00">Schedule</text>
</g>
<!-- class_work&#45;&gt;schedule -->
<g id="edge2" class="edge">
<title>class_work&#45;&gt;schedule</title>
<path fill="none" stroke="#334155" d="M55.28,-431.83C55.28,-431.83 55.28,-404.43 55.28,-404.43"/>
<polygon fill="#334155" stroke="#334155" points="57.56,-404.43 55.28,-397.93 53.01,-404.43 57.56,-404.43"/>
</g>
<!-- grading -->
<g id="node3" class="node">
<title>grading</title>
<polygon fill="#dcfce7" stroke="#334155" points="110.56,-180 0,-180 0,-144 110.56,-144 110.56,-180"/>
<text xml:space="preserve" text-anchor="middle" x="55.28" y="-159" font-family="Arial" font-size="10.00">Grading and Advisory</text>
</g>
<!-- sheet -->
<g id="node7" class="node">
<title>sheet</title>
<polygon fill="#f8fafc" stroke="#334155" points="94.72,-108 15.84,-108 15.84,-72 94.72,-72 94.72,-108"/>
<text xml:space="preserve" text-anchor="middle" x="55.28" y="-87" font-family="Arial" font-size="10.00">Grading Sheet</text>
</g>
<!-- grading&#45;&gt;sheet -->
<g id="edge6" class="edge">
<title>grading&#45;&gt;sheet</title>
<path fill="none" stroke="#334155" d="M55.28,-143.83C55.28,-143.83 55.28,-116.43 55.28,-116.43"/>
<polygon fill="#334155" stroke="#334155" points="57.56,-116.43 55.28,-109.93 53.01,-116.43 57.56,-116.43"/>
</g>
<!-- attendance -->
<g id="node5" class="node">
<title>attendance</title>
<polygon fill="#f8fafc" stroke="#334155" points="87.78,-324 22.78,-324 22.78,-288 87.78,-288 87.78,-324"/>
<text xml:space="preserve" text-anchor="middle" x="55.28" y="-303" font-family="Arial" font-size="10.00">Attendance</text>
</g>
<!-- schedule&#45;&gt;attendance -->
<g id="edge3" class="edge">
<title>schedule&#45;&gt;attendance</title>
<path fill="none" stroke="#334155" d="M55.28,-359.83C55.28,-359.83 55.28,-332.43 55.28,-332.43"/>
<polygon fill="#334155" stroke="#334155" points="57.56,-332.43 55.28,-325.93 53.01,-332.43 57.56,-332.43"/>
</g>
<!-- sf2 -->
<g id="node6" class="node">
<title>sf2</title>
<polygon fill="#f8fafc" stroke="#334155" points="87.49,-252 23.07,-252 23.07,-216 87.49,-216 87.49,-252"/>
<text xml:space="preserve" text-anchor="middle" x="55.28" y="-231" font-family="Arial" font-size="10.00">SF2 Export</text>
</g>
<!-- attendance&#45;&gt;sf2 -->
<g id="edge4" class="edge">
<title>attendance&#45;&gt;sf2</title>
<path fill="none" stroke="#334155" d="M55.28,-287.83C55.28,-287.83 55.28,-260.43 55.28,-260.43"/>
<polygon fill="#334155" stroke="#334155" points="57.56,-260.43 55.28,-253.93 53.01,-260.43 57.56,-260.43"/>
</g>
<!-- sf2&#45;&gt;grading -->
<g id="edge5" class="edge">
<title>sf2&#45;&gt;grading</title>
<path fill="none" stroke="#334155" d="M55.28,-215.83C55.28,-215.83 55.28,-188.43 55.28,-188.43"/>
<polygon fill="#334155" stroke="#334155" points="57.56,-188.43 55.28,-181.93 53.01,-188.43 57.56,-188.43"/>
</g>
<!-- advisory -->
<g id="node8" class="node">
<title>advisory</title>
<polygon fill="#f8fafc" stroke="#334155" points="96.38,-36 14.18,-36 14.18,0 96.38,0 96.38,-36"/>
<text xml:space="preserve" text-anchor="middle" x="55.28" y="-15" font-family="Arial" font-size="10.00">Advisory Board</text>
</g>
<!-- sheet&#45;&gt;advisory -->
<g id="edge7" class="edge">
<title>sheet&#45;&gt;advisory</title>
<path fill="none" stroke="#334155" d="M55.28,-71.83C55.28,-71.83 55.28,-44.43 55.28,-44.43"/>
<polygon fill="#334155" stroke="#334155" points="57.56,-44.43 55.28,-37.93 53.01,-44.43 57.56,-44.43"/>
</g>
</g>
</svg>
