<?xml version="1.0" encoding="UTF-8" standalone="no"?>
<!DOCTYPE svg PUBLIC "-//W3C//DTD SVG 1.1//EN"
 "http://www.w3.org/Graphics/SVG/1.1/DTD/svg11.dtd">
<!-- Generated by graphviz version 14.1.5 (20260411.2331)
 -->
<!-- Title: G Pages: 1 -->
<svg width="124pt" height="360pt"
 viewBox="0.00 0.00 124.00 360.00" xmlns="http://www.w3.org/2000/svg" xmlns:xlink="http://www.w3.org/1999/xlink">
<g id="graph0" class="graph" transform="scale(1 1) rotate(0) translate(18 342)">
<title>G</title>
<polygon fill="white" stroke="none" points="-18,18 -18,-342 105.78,-342 105.78,18 -18,18"/>
<!-- root -->
<g id="node1" class="node">
<title>root</title>
<polygon fill="#dbeafe" stroke="#334155" points="87.78,-324 0,-324 0,-288 87.78,-288 87.78,-324"/>
<text xml:space="preserve" text-anchor="middle" x="43.89" y="-303" font-family="Arial" font-size="10.00">Student Account</text>
</g>
<!-- portal -->
<g id="node2" class="node">
<title>portal</title>
<polygon fill="#dcfce7" stroke="#334155" points="82.78,-252 5,-252 5,-216 82.78,-216 82.78,-252"/>
<text xml:space="preserve" text-anchor="middle" x="43.89" y="-231" font-family="Arial" font-size="10.00">Student Portal</text>
</g>
<!-- root&#45;&gt;portal -->
<g id="edge1" class="edge">
<title>root&#45;&gt;portal</title>
<path fill="none" stroke="#334155" d="M43.89,-287.83C43.89,-287.83 43.89,-260.43 43.89,-260.43"/>
<polygon fill="#334155" stroke="#334155" points="46.17,-260.43 43.89,-253.93 41.62,-260.43 46.17,-260.43"/>
</g>
<!-- dashboard -->
<g id="node3" class="node">
<title>dashboard</title>
<polygon fill="#f8fafc" stroke="#334155" points="75.55,-180 12.23,-180 12.23,-144 75.55,-144 75.55,-180"/>
<text xml:space="preserve" text-anchor="middle" x="43.89" y="-159" font-family="Arial" font-size="10.00">Dashboard</text>
</g>
<!-- portal&#45;&gt;dashboard -->
<g id="edge2" class="edge">
<title>portal&#45;&gt;dashboard</title>
<path fill="none" stroke="#334155" d="M43.89,-215.83C43.89,-215.83 43.89,-188.43 43.89,-188.43"/>
<polygon fill="#334155" stroke="#334155" points="46.17,-188.43 43.89,-181.93 41.62,-188.43 46.17,-188.43"/>
</g>
<!-- schedule -->
<g id="node4" class="node">
<title>schedule</title>
<polygon fill="#f8fafc" stroke="#334155" points="71.94,-108 15.84,-108 15.84,-72 71.94,-72 71.94,-108"/>
<text xml:space="preserve" text-anchor="middle" x="43.89" y="-87" font-family="Arial" font-size="10.00">Schedule</text>
</g>
<!-- dashboard&#45;&gt;schedule -->
<g id="edge3" class="edge">
<title>dashboard&#45;&gt;schedule</title>
<path fill="none" stroke="#334155" d="M43.89,-143.83C43.89,-143.83 43.89,-116.43 43.89,-116.43"/>
<polygon fill="#334155" stroke="#334155" points="46.17,-116.43 43.89,-109.93 41.62,-116.43 46.17,-116.43"/>
</g>
<!-- grades -->
<g id="node5" class="node">
<title>grades</title>
<polygon fill="#f8fafc" stroke="#334155" points="70.89,-36 16.89,-36 16.89,0 70.89,0 70.89,-36"/>
<text xml:space="preserve" text-anchor="middle" x="43.89" y="-15" font-family="Arial" font-size="10.00">Grades</text>
</g>
<!-- schedule&#45;&gt;grades -->
<g id="edge4" class="edge">
<title>schedule&#45;&gt;grades</title>
<path fill="none" stroke="#334155" d="M43.89,-71.83C43.89,-71.83 43.89,-44.43 43.89,-44.43"/>
<polygon fill="#334155" stroke="#334155" points="46.17,-44.43 43.89,-37.93 41.62,-44.43 46.17,-44.43"/>
</g>
</g>
</svg>
