<?xml version="1.0" encoding="UTF-8" standalone="no"?>
<!DOCTYPE svg PUBLIC "-//W3C//DTD SVG 1.1//EN"
 "http://www.w3.org/Graphics/SVG/1.1/DTD/svg11.dtd">
<!-- Generated by graphviz version 14.1.5 (20260411.2331)
 -->
<!-- Title: G Pages: 1 -->
<svg width="144pt" height="576pt"
 viewBox="0.00 0.00 144.00 576.00" xmlns="http://www.w3.org/2000/svg" xmlns:xlink="http://www.w3.org/1999/xlink">
<g id="graph0" class="graph" transform="scale(1 1) rotate(0) translate(18 558)">
<title>G</title>
<polygon fill="white" stroke="none" points="-18,18 -18,-558 126.35,-558 126.35,18 -18,18"/>
<!-- root -->
<g id="node1" class="node">
<title>root</title>
<polygon fill="#dbeafe" stroke="#334155" points="95.56,-540 12.79,-540 12.79,-504 95.56,-504 95.56,-540"/>
<text xml:space="preserve" text-anchor="middle" x="54.17" y="-519" font-family="Arial" font-size="10.00">Parent Account</text>
</g>
<!-- portal -->
<g id="node2" class="node">
<title>portal</title>
<polygon fill="#dcfce7" stroke="#334155" points="90.55,-468 17.79,-468 17.79,-432 90.55,-432 90.55,-468"/>
<text xml:space="preserve" text-anchor="middle" x="54.17" y="-447" font-family="Arial" font-size="10.00">Parent Portal</text>
</g>
<!-- root&#45;&gt;portal -->
<g id="edge1" class="edge">
<title>root&#45;&gt;portal</title>
<path fill="none" stroke="#334155" d="M54.17,-503.83C54.17,-503.83 54.17,-476.43 54.17,-476.43"/>
<polygon fill="#334155" stroke="#334155" points="56.45,-476.43 54.17,-469.93 51.9,-476.43 56.45,-476.43"/>
</g>
<!-- dashboard -->
<g id="node4" class="node">
<title>dashboard</title>
<polygon fill="#f8fafc" stroke="#334155" points="85.83,-396 22.51,-396 22.51,-360 85.83,-360 85.83,-396"/>
<text xml:space="preserve" text-anchor="middle" x="54.17" y="-375" font-family="Arial" font-size="10.00">Dashboard</text>
</g>
<!-- portal&#45;&gt;dashboard -->
<g id="edge2" class="edge">
<title>portal&#45;&gt;dashboard</title>
<path fill="none" stroke="#334155" d="M54.17,-431.83C54.17,-431.83 54.17,-404.43 54.17,-404.43"/>
<polygon fill="#334155" stroke="#334155" points="56.45,-404.43 54.17,-397.93 51.9,-404.43 56.45,-404.43"/>
</g>
<!-- access -->
<g id="node3" class="node">
<title>access</title>
<polygon fill="#dcfce7" stroke="#334155" points="95,-108 13.35,-108 13.35,-72 95,-72 95,-108"/>
<text xml:space="preserve" text-anchor="middle" x="54.17" y="-87" font-family="Arial" font-size="10.00">Access Control</text>
</g>
<!-- disabled -->
<g id="node8" class="node">
<title>disabled</title>
<polygon fill="#f8fafc" stroke="#334155" points="108.35,-36 0,-36 0,0 108.35,0 108.35,-36"/>
<text xml:space="preserve" text-anchor="middle" x="54.17" y="-15" font-family="Arial" font-size="10.00">Portal Disabled Page</text>
</g>
<!-- access&#45;&gt;disabled -->
<g id="edge7" class="edge">
<title>access&#45;&gt;disabled</title>
<path fill="none" stroke="#334155" d="M54.17,-71.83C54.17,-71.83 54.17,-44.43 54.17,-44.43"/>
<polygon fill="#334155" stroke="#334155" points="56.45,-44.43 54.17,-37.93 51.9,-44.43 56.45,-44.43"/>
</g>
<!-- schedule -->
<g id="node5" class="node">
<title>schedule</title>
<polygon fill="#f8fafc" stroke="#334155" points="82.22,-324 26.12,-324 26.12,-288 82.22,-288 82.22,-324"/>
<text xml:space="preserve" text-anchor="middle" x="54.17" y="-303" font-family="Arial" font-size="10.00">Schedule</text>
</g>
<!-- dashboard&#45;&gt;schedule -->
<g id="edge3" class="edge">
<title>dashboard&#45;&gt;schedule</title>
<path fill="none" stroke="#334155" d="M54.17,-359.83C54.17,-359.83 54.17,-332.43 54.17,-332.43"/>
<polygon fill="#334155" stroke="#334155" points="56.45,-332.43 54.17,-325.93 51.9,-332.43 56.45,-332.43"/>
</g>
<!-- grades -->
<g id="node6" class="node">
<title>grades</title>
<polygon fill="#f8fafc" stroke="#334155" points="81.17,-252 27.17,-252 27.17,-216 81.17,-216 81.17,-252"/>
<text xml:space="preserve" text-anchor="middle" x="54.17" y="-231" font-family="Arial" font-size="10.00">Grades</text>
</g>
<!-- schedule&#45;&gt;grades -->
<g id="edge4" class="edge">
<title>schedule&#45;&gt;grades</title>
<path fill="none" stroke="#334155" d="M54.17,-287.83C54.17,-287.83 54.17,-260.43 54.17,-260.43"/>
<polygon fill="#334155" stroke="#334155" points="56.45,-260.43 54.17,-253.93 51.9,-260.43 56.45,-260.43"/>
</g>
<!-- billing -->
<g id="node7" class="node">
<title>billing</title>
<polygon fill="#f8fafc" stroke="#334155" points="101.11,-180 7.23,-180 7.23,-144 101.11,-144 101.11,-180"/>
<text xml:space="preserve" text-anchor="middle" x="54.17" y="-159" font-family="Arial" font-size="10.00">Billing Information</text>
</g>
<!-- grades&#45;&gt;billing -->
<g id="edge5" class="edge">
<title>grades&#45;&gt;billing</title>
<path fill="none" stroke="#334155" d="M54.17,-215.83C54.17,-215.83 54.17,-188.43 54.17,-188.43"/>
<polygon fill="#334155" stroke="#334155" points="56.45,-188.43 54.17,-181.93 51.9,-188.43 56.45,-188.43"/>
</g>
<!-- billing&#45;&gt;access -->
<g id="edge6" class="edge">
<title>billing&#45;&gt;access</title>
<path fill="none" stroke="#334155" d="M54.17,-143.83C54.17,-143.83 54.17,-116.43 54.17,-116.43"/>
<polygon fill="#334155" stroke="#334155" points="56.45,-116.43 54.17,-109.93 51.9,-116.43 56.45,-116.43"/>
</g>
</g>
</svg>
